<?xml version="1.0" encoding="utf-8"?>
<!DOCTYPE svg PUBLIC "-//W3C//DTD SVG 20010904//EN" "http://www.w3.org/TR/2001/REC-SVG-20010904/DTD/svg10.dtd">
<svg version="1.0" xmlns="http://www.w3.org/2000/svg" width="502pt" height="502pt" viewBox="0 0 502 502" style="" preserveAspectRatio="xMidYMid meet">
<g fill="#0F6C7BFF">
<path d="M 115.655 118.829 C 114.134 120.510 114.000 130.655 114.000 244.329 C 114.000 366.667 114.022 368.022 116.000 370.000 C 117.980 371.980 119.333 372.000 252.000 372.000 C 384.667 372.000 386.020 371.980 388.000 370.000 C 390.494 367.506 390.572 363.827 388.175 361.659 C 386.502 360.144 375.581 359.986 256.425 359.754 L 126.500 359.500 126.000 239.904 C 125.585 140.551 125.268 120.027 124.128 118.654 C 122.303 116.456 117.717 116.550 115.655 118.829 "/></g>
<g fill="#0F6C7BFF">
<path d="M 353.200 185.200 C 351.463 186.937 351.463 341.063 353.200 342.800 C 354.040 343.640 359.554 344.000 371.593 344.000 C 386.348 344.000 388.872 343.776 389.393 342.418 C 389.727 341.548 390.000 306.088 390.000 263.618 C 390.000 204.893 389.713 186.113 388.800 185.200 C 387.963 184.363 382.578 184.000 371.000 184.000 C 359.422 184.000 354.037 184.363 353.200 185.200 "/></g>
<g fill="#0F6C7BFF">
<path d="M 362.366 120.919 C 360.642 121.970 357.956 124.503 356.396 126.547 C 354.006 129.680 353.538 131.292 353.415 136.800 C 353.243 144.486 356.079 141.409 326.500 166.016 C 318.250 172.880 310.899 179.066 310.163 179.763 C 309.428 180.460 307.275 182.214 305.379 183.660 C 302.403 185.930 301.587 186.133 299.419 185.145 C 296.074 183.621 286.523 183.685 283.787 185.250 C 282.585 185.938 280.695 187.299 279.586 188.275 C 278.477 189.251 277.104 189.863 276.535 189.636 C 275.966 189.409 272.350 188.007 268.500 186.520 C 264.650 185.033 260.375 183.347 259.000 182.774 C 253.218 180.364 248.048 178.354 245.868 177.667 C 244.885 177.358 243.742 175.092 242.992 171.968 C 238.872 154.792 216.566 151.870 208.993 167.515 C 207.170 171.280 206.861 173.159 207.362 177.424 C 208.067 183.419 209.241 181.931 193.500 194.995 C 188.550 199.103 183.150 203.654 181.500 205.109 C 179.850 206.564 172.538 212.777 165.250 218.916 C 153.984 228.407 152.000 230.503 152.000 232.917 C 152.000 238.564 158.609 240.117 163.681 235.662 C 167.592 232.227 198.615 205.939 208.370 197.794 C 213.184 193.776 216.822 191.416 217.451 191.906 C 221.016 194.682 231.316 193.621 236.256 189.969 C 239.120 187.851 239.298 187.840 243.844 189.496 C 246.405 190.428 250.408 192.048 252.739 193.095 C 255.071 194.143 257.349 195.000 257.801 195.000 C 258.254 195.000 260.487 195.900 262.764 197.000 C 265.041 198.100 267.391 199.000 267.987 199.000 C 270.643 199.000 274.000 202.331 274.000 204.967 C 274.000 208.459 277.597 213.812 281.886 216.702 C 294.225 225.018 309.933 216.241 309.986 201.000 L 310.005 195.500 332.617 176.500 C 345.053 166.050 356.530 156.452 358.121 155.172 C 360.983 152.869 361.068 152.862 366.088 154.529 C 372.266 156.581 377.824 155.418 383.263 150.934 C 393.763 142.280 391.596 125.646 379.282 120.377 C 374.559 118.356 366.126 118.626 362.366 120.919 M 297.443 197.223 C 299.682 200.419 299.364 203.727 296.545 206.545 C 291.868 211.223 285.000 208.681 285.000 202.272 C 285.000 197.419 287.361 195.000 292.098 195.000 C 294.879 195.000 296.300 195.591 297.443 197.223 M 228.316 169.150 C 231.213 170.675 231.966 171.941 231.985 175.316 C 232.012 180.343 230.409 182.000 225.522 182.000 C 222.100 182.000 220.765 181.503 219.557 179.777 C 217.168 176.368 217.603 172.458 220.635 170.073 C 223.640 167.709 225.218 167.519 228.316 169.150 M 376.427 131.570 C 382.347 137.490 375.357 146.943 368.069 142.872 C 364.795 141.044 363.954 134.813 366.589 131.902 C 368.698 129.571 374.242 129.384 376.427 131.570 "/></g>
<g fill="#0F6C7BFF">
<path d="M 208.750 220.080 C 207.114 221.033 207.000 225.005 207.000 280.968 C 207.000 313.896 207.273 341.548 207.607 342.418 C 208.127 343.773 210.608 344.000 224.907 344.000 C 236.557 344.000 241.963 343.637 242.800 342.800 C 243.707 341.893 244.000 327.012 244.000 281.955 C 244.000 225.442 243.904 222.223 242.171 220.655 C 240.638 219.267 237.931 219.005 225.421 219.030 C 217.157 219.047 209.719 219.516 208.750 220.080 "/></g>
<g fill="#0F6C7BFF">
<path d="M 274.467 243.226 C 274.199 243.927 274.097 266.775 274.240 294.000 L 274.500 343.500 292.000 343.500 L 309.500 343.500 309.500 293.000 L 309.500 242.500 292.228 242.226 C 278.958 242.016 274.842 242.248 274.467 243.226 "/></g>
<g fill="#0F6C7BFF">
<path d="M 143.239 302.750 L 143.500 343.500 160.426 343.775 C 173.297 343.984 177.545 343.745 178.160 342.775 C 179.090 341.310 179.311 265.975 178.393 263.582 C 177.872 262.223 175.330 262.000 160.382 262.000 L 142.978 262.000 143.239 302.750 "/></g>
</svg>
