<?xml version="1.0" encoding="utf-8"?>
<!DOCTYPE svg PUBLIC "-//W3C//DTD SVG 20010904//EN" "http://www.w3.org/TR/2001/REC-SVG-20010904/DTD/svg10.dtd">
<svg version="1.0" xmlns="http://www.w3.org/2000/svg" width="502pt" height="502pt" viewBox="0 0 502 502" style="" preserveAspectRatio="xMidYMid meet">
<g fill="#166E78FF">
<path d="M 271.757 224.969 C 247.739 229.338 230.504 244.361 222.388 268.000 C 219.833 275.443 219.835 294.820 222.392 303.500 C 228.207 323.244 245.884 340.279 266.000 345.525 C 279.943 349.161 299.611 346.760 311.735 339.943 C 314.614 338.325 317.429 337.000 317.990 337.000 C 318.550 337.000 328.461 346.338 340.012 357.750 C 353.015 370.597 362.235 378.926 364.220 379.619 C 373.071 382.709 382.182 372.814 377.883 364.781 C 377.268 363.633 367.108 353.146 355.304 341.478 L 333.843 320.262 337.432 313.135 C 344.172 299.752 345.748 285.153 342.025 270.596 C 339.346 260.123 335.119 252.589 326.943 243.717 C 319.516 235.656 309.818 229.746 298.908 226.632 C 292.013 224.664 278.115 223.813 271.757 224.969 M 296.142 239.877 C 317.069 247.077 329.612 263.397 330.323 284.350 C 330.790 298.127 326.155 309.527 315.930 319.748 C 296.961 338.708 266.949 338.674 247.731 319.669 C 232.618 304.724 229.042 282.999 238.596 264.180 C 244.878 251.807 254.408 243.902 268.340 239.509 C 274.852 237.456 289.675 237.652 296.142 239.877 "/></g>
<g fill="#166E78FF">
<path d="M 349.500 124.563 C 339.050 126.414 328.925 128.296 327.000 128.747 C 321.466 130.044 321.919 132.663 328.951 140.030 C 332.278 143.516 335.000 146.724 335.000 147.159 C 335.000 148.355 284.698 199.000 283.510 199.000 C 282.941 199.000 275.287 191.800 266.500 183.000 C 253.028 169.508 250.058 167.000 247.552 167.000 C 245.001 167.000 240.612 170.931 216.540 194.778 C 201.118 210.055 177.138 233.796 163.250 247.535 C 140.703 269.841 138.000 272.858 138.000 275.719 C 138.000 281.029 144.415 284.957 148.640 282.235 C 149.267 281.831 171.712 259.900 198.517 233.500 C 225.323 207.100 247.741 185.644 248.335 185.819 C 248.930 185.995 255.960 192.836 263.958 201.022 C 278.783 216.195 281.281 217.899 286.706 216.538 C 288.418 216.108 299.814 205.512 317.744 187.679 C 333.327 172.181 346.444 159.372 346.892 159.215 C 347.341 159.059 350.586 161.643 354.104 164.957 C 357.622 168.272 361.030 170.988 361.679 170.992 C 364.011 171.008 365.770 168.004 366.476 162.800 C 366.872 159.885 367.353 156.825 367.545 156.000 C 367.986 154.113 369.245 147.340 371.572 134.338 C 373.084 125.887 373.168 123.908 372.073 122.588 C 370.479 120.667 372.505 120.489 349.500 124.563 "/></g>
<g fill="#166E78FF">
<path d="M 112.611 127.532 C 111.768 128.375 110.818 130.512 110.499 132.282 C 110.181 134.052 110.051 187.968 110.210 252.097 C 110.451 349.136 110.730 368.970 111.872 370.347 C 113.133 371.865 121.571 372.000 214.967 372.000 C 312.245 372.000 316.762 371.920 318.345 370.171 C 320.707 367.561 320.434 363.418 317.777 361.557 C 315.803 360.174 304.809 360.000 219.394 360.000 L 123.233 360.000 122.630 357.750 C 122.299 356.513 122.021 304.570 122.014 242.321 C 122.001 140.777 121.838 128.981 120.429 127.571 C 118.428 125.571 114.591 125.552 112.611 127.532 "/></g>
</svg>
