<?xml version="1.0" encoding="utf-8"?>
<!DOCTYPE svg PUBLIC "-//W3C//DTD SVG 20010904//EN" "http://www.w3.org/TR/2001/REC-SVG-20010904/DTD/svg10.dtd">
<svg version="1.0" xmlns="http://www.w3.org/2000/svg" width="502pt" height="502pt" viewBox="0 0 502 502" style="" preserveAspectRatio="xMidYMid meet">
<g fill="#006766FF">
<path d="M 301.000 107.553 C 297.975 108.302 292.406 108.934 288.625 108.958 L 281.751 109.000 276.803 114.106 L 271.856 119.212 260.045 118.503 L 248.235 117.793 244.237 121.405 C 239.407 125.768 236.196 132.828 235.347 140.952 C 234.756 146.607 234.618 146.866 233.109 145.147 C 229.431 140.956 222.932 139.810 216.345 142.192 C 213.161 143.344 212.915 143.241 209.177 139.192 C 207.049 136.887 204.535 135.000 203.591 135.000 C 202.647 135.000 199.502 136.162 196.602 137.582 L 191.329 140.163 187.525 137.582 C 184.237 135.351 182.659 135.000 175.901 135.000 C 168.648 135.000 167.476 134.688 159.712 130.693 C 141.550 121.348 120.822 116.848 103.414 118.473 C 95.684 119.194 95.405 119.315 91.422 123.646 C 87.888 127.490 87.021 127.963 84.922 127.195 C 81.477 125.934 76.585 127.538 75.034 130.437 C 73.201 133.861 74.277 141.641 77.450 147.901 C 80.652 154.221 82.391 162.101 81.561 166.528 C 81.057 169.214 79.328 171.206 73.213 176.146 C 63.597 183.915 52.237 195.818 49.185 201.324 C 47.084 205.114 46.929 206.304 47.506 214.192 L 48.141 222.885 44.229 223.938 C 39.706 225.156 38.228 226.626 34.622 233.492 C 29.762 242.746 31.652 248.515 42.788 258.412 C 49.291 264.191 51.730 264.991 56.384 262.871 C 58.487 261.913 60.172 262.290 67.531 265.371 C 74.127 268.132 77.590 269.000 82.011 269.000 C 87.133 269.000 88.100 269.329 90.161 271.773 C 96.247 278.987 101.036 279.769 106.868 274.500 C 110.203 271.487 111.436 271.000 115.722 271.000 C 122.772 271.000 126.748 269.355 132.658 263.994 C 139.182 258.076 142.851 256.352 151.902 254.947 C 160.778 253.570 163.118 254.104 169.500 258.960 C 175.622 263.618 179.501 265.626 184.035 266.485 C 190.780 267.763 194.256 272.480 194.178 280.251 C 194.106 287.534 195.602 291.588 199.322 294.185 C 203.376 297.016 203.966 297.901 203.985 301.189 C 203.994 302.875 205.493 305.603 208.000 308.500 C 212.323 313.494 212.802 315.090 210.542 316.965 C 208.964 318.275 201.066 317.641 197.907 315.950 C 192.343 312.972 187.948 317.354 188.141 325.690 C 188.250 330.432 187.885 331.539 185.295 334.315 C 183.660 336.067 181.168 339.525 179.757 342.000 C 176.971 346.884 173.390 350.625 169.787 352.414 C 162.085 356.239 173.466 367.647 182.713 365.371 C 184.246 364.993 188.031 363.405 191.124 361.842 C 198.186 358.273 199.666 358.291 204.000 362.000 C 208.002 365.425 207.891 365.398 210.326 363.552 C 211.782 362.449 212.100 361.019 211.891 356.507 L 211.628 350.847 217.064 347.931 C 224.054 344.181 229.982 337.529 235.100 327.692 C 238.716 320.741 239.687 319.634 243.672 317.926 C 246.144 316.867 249.784 316.000 251.762 316.000 C 253.740 316.000 256.774 315.488 258.504 314.862 C 261.120 313.916 262.100 314.019 264.317 315.472 C 267.668 317.668 267.201 318.404 261.435 320.018 C 258.895 320.729 256.574 321.946 256.276 322.723 C 254.746 326.710 261.620 332.175 271.279 334.651 C 277.172 336.162 283.243 336.110 293.500 334.462 C 295.879 334.080 297.324 334.695 300.480 337.433 C 304.082 340.558 304.272 340.951 302.480 341.567 C 293.807 344.550 279.062 353.105 277.388 356.124 C 274.280 361.731 277.194 365.340 284.083 364.414 C 287.900 363.901 289.044 364.217 292.508 366.741 C 294.712 368.347 297.765 369.975 299.292 370.358 C 303.462 371.405 304.668 374.962 302.647 380.254 C 300.450 386.008 300.571 389.163 303.096 391.873 C 307.381 396.472 315.261 397.357 320.967 393.879 C 322.873 392.717 326.473 389.612 328.967 386.978 C 333.347 382.352 338.243 380.020 343.602 380.006 C 345.681 380.000 348.466 378.264 355.520 372.576 C 358.854 369.887 359.411 369.747 362.436 370.841 C 367.301 372.600 378.916 370.804 381.250 367.932 C 382.213 366.748 383.000 364.905 383.000 363.837 C 383.000 362.770 384.013 360.134 385.250 357.980 L 387.500 354.063 385.333 351.892 C 382.954 349.509 380.643 349.250 371.176 350.306 C 366.749 350.800 363.871 351.759 361.582 353.506 C 359.783 354.878 357.341 356.000 356.154 356.000 C 353.142 356.000 347.052 349.392 343.223 341.969 C 339.717 335.171 339.220 331.450 341.415 328.448 C 342.788 326.570 342.892 326.593 344.987 329.257 C 346.174 330.765 347.773 332.000 348.541 332.000 C 349.309 332.000 351.838 329.413 354.162 326.250 C 360.775 317.249 363.004 315.895 375.945 313.012 C 380.969 311.893 387.600 309.633 390.681 307.989 C 393.761 306.345 397.298 305.000 398.540 305.000 C 399.783 305.000 403.195 303.200 406.123 301.000 C 410.749 297.524 412.130 297.000 416.667 297.000 C 425.126 297.000 428.905 292.011 428.976 280.750 C 428.993 278.178 429.449 277.000 430.429 277.000 C 431.214 277.000 432.564 276.293 433.429 275.429 C 434.293 274.564 435.000 274.175 435.000 274.563 C 435.000 275.600 438.551 270.797 439.298 268.750 C 439.818 267.325 441.161 267.000 446.518 267.000 C 457.871 267.000 462.430 262.857 462.472 252.500 C 462.491 248.028 461.919 245.522 460.229 242.659 L 457.961 238.819 460.487 236.832 C 465.982 232.509 465.786 228.492 459.932 225.465 L 456.922 223.909 460.301 219.962 C 464.599 214.940 466.300 209.531 465.002 205.008 C 463.796 200.801 462.596 200.035 457.191 200.015 C 453.997 200.004 451.928 199.262 449.191 197.145 C 444.731 193.696 442.403 192.778 429.500 189.387 C 416.755 186.037 413.399 185.545 412.559 186.904 C 411.065 189.322 407.131 187.970 403.578 183.820 C 401.610 181.521 400.000 179.062 400.000 178.355 C 400.000 177.649 399.130 176.605 398.066 176.035 C 394.671 174.219 389.814 174.914 384.346 178.000 C 378.052 181.552 376.353 181.666 370.364 178.938 C 366.744 177.289 364.764 177.011 360.471 177.547 C 355.177 178.208 355.075 178.171 353.055 174.859 C 351.592 172.459 351.006 169.782 351.004 165.482 C 351.001 160.697 350.482 158.702 348.471 155.743 C 345.014 150.655 341.370 149.000 333.622 149.000 C 327.816 149.000 326.930 148.727 325.073 146.365 C 322.483 143.073 322.468 140.963 325.000 136.000 C 327.877 130.361 327.571 127.408 323.750 123.923 C 321.963 122.292 319.375 118.632 318.000 115.789 C 313.965 107.447 309.724 105.392 301.000 107.553 M 312.678 120.197 C 314.454 123.880 317.057 127.646 318.461 128.567 L 321.015 130.240 319.115 133.370 C 316.273 138.054 315.675 142.297 317.316 146.146 C 320.537 153.699 324.600 156.134 333.573 155.887 C 342.585 155.639 344.046 157.149 344.971 167.669 C 345.755 176.571 346.637 178.676 351.196 182.512 C 354.167 185.011 354.926 185.188 360.277 184.629 C 364.971 184.138 366.881 184.409 370.018 186.009 C 375.530 188.821 379.763 188.536 385.378 184.975 C 392.084 180.723 393.163 180.816 397.137 185.989 C 402.006 192.328 406.716 195.321 410.500 194.480 C 416.049 193.247 420.450 193.653 430.259 196.303 C 441.113 199.235 442.866 200.016 448.193 204.284 C 451.309 206.781 452.443 207.139 455.443 206.577 C 458.599 205.985 459.000 206.145 459.000 208.004 C 459.000 211.180 456.549 215.239 453.097 217.780 C 449.043 220.764 448.904 224.903 452.740 228.460 C 454.247 229.857 455.887 231.000 456.386 231.000 C 456.884 231.000 456.101 232.104 454.646 233.452 C 451.364 236.494 451.339 238.381 454.490 245.151 C 457.374 251.346 457.625 254.663 455.443 257.777 C 454.070 259.739 453.004 260.000 446.378 260.000 C 442.248 260.000 438.079 260.423 437.114 260.939 C 436.148 261.456 434.533 263.709 433.525 265.945 C 432.071 269.169 430.903 270.248 427.893 271.150 C 423.434 272.486 422.000 275.479 422.000 283.449 C 422.000 286.282 421.460 289.140 420.800 289.800 C 420.140 290.460 417.410 291.000 414.734 291.000 C 409.338 291.000 407.064 291.935 402.215 296.147 C 400.409 297.716 397.903 299.000 396.648 299.000 C 395.393 299.000 391.825 300.299 388.720 301.887 C 385.615 303.475 379.120 305.789 374.287 307.029 C 369.454 308.268 363.475 310.296 361.000 311.536 C 356.555 313.761 350.000 319.981 350.000 321.973 C 350.000 323.767 348.511 323.081 347.487 320.815 C 345.863 317.219 344.306 317.599 339.027 322.878 C 334.865 327.040 334.000 328.520 334.000 331.482 L 334.000 335.060 331.250 333.032 C 329.738 331.916 326.025 330.047 323.000 328.878 C 312.369 324.769 307.733 325.386 306.484 331.074 L 305.805 334.165 303.652 332.208 C 299.140 328.103 297.304 327.708 288.851 329.023 C 280.274 330.357 272.357 329.753 267.844 327.419 C 266.280 326.610 265.000 325.748 265.000 325.502 C 265.000 325.257 267.197 324.110 269.882 322.955 C 276.373 320.163 280.847 315.564 279.359 313.214 C 278.520 311.888 277.154 311.574 273.324 311.828 C 267.262 312.230 266.486 311.399 265.606 303.566 C 264.851 296.849 263.605 294.771 260.588 295.202 C 258.358 295.520 258.111 297.079 259.399 302.685 C 260.462 307.315 257.846 309.522 250.371 310.303 C 239.123 311.479 234.264 314.996 229.379 325.500 C 225.571 333.687 215.390 344.000 211.116 344.000 C 207.156 344.000 204.492 347.711 205.355 352.025 C 205.929 354.895 205.835 354.994 203.228 354.277 C 198.712 353.036 194.845 353.700 187.772 356.929 C 180.235 360.369 180.145 360.386 176.521 359.008 L 173.912 358.016 177.402 354.952 C 179.321 353.267 182.726 349.101 184.968 345.694 C 187.210 342.287 190.384 337.497 192.022 335.049 C 194.183 331.819 195.000 329.410 195.000 326.264 C 195.000 322.289 195.160 322.015 196.934 322.965 C 197.998 323.534 201.858 324.000 205.511 324.000 C 211.520 324.000 212.433 323.721 215.077 321.077 C 219.695 316.459 218.723 309.801 212.595 304.076 C 211.168 302.742 210.000 300.897 210.000 299.975 C 210.000 296.186 207.632 291.935 204.412 289.945 C 201.131 287.918 200.999 287.600 200.978 281.668 C 200.954 275.029 198.434 267.979 195.029 265.025 C 192.846 263.132 186.801 260.422 182.918 259.596 C 181.498 259.293 177.290 256.798 173.567 254.049 C 165.999 248.463 162.545 247.469 153.631 248.314 C 143.596 249.264 137.587 251.766 129.965 258.166 C 123.202 263.844 122.858 264.000 117.073 264.000 C 109.819 264.000 107.236 264.917 103.241 268.913 C 101.543 270.611 99.729 272.000 99.210 272.000 C 98.691 272.000 97.080 270.208 95.631 268.019 C 92.801 263.743 91.941 263.402 82.000 262.611 C 78.425 262.327 73.628 261.182 71.340 260.067 C 64.045 256.513 58.406 255.406 54.732 256.808 C 51.523 258.033 51.452 257.992 44.711 251.099 C 38.663 244.914 37.997 243.849 38.603 241.329 C 40.001 235.522 42.943 231.049 45.762 230.447 C 54.257 228.631 55.746 225.905 53.973 215.418 C 52.922 209.208 52.982 207.936 54.456 205.086 C 56.601 200.937 69.497 187.418 77.511 180.916 C 89.865 170.892 90.929 163.317 82.591 144.721 C 79.821 138.543 79.198 133.059 81.250 132.907 C 81.938 132.856 84.438 132.892 86.807 132.986 C 90.603 133.138 91.541 132.706 94.698 129.359 L 98.281 125.559 108.077 125.166 C 123.861 124.532 139.606 128.388 157.927 137.376 C 166.635 141.647 167.937 142.000 174.983 142.000 C 181.616 142.000 183.061 142.335 186.056 144.571 C 190.070 147.567 194.417 147.390 198.650 144.060 C 202.121 141.331 203.417 141.460 205.568 144.750 C 209.397 150.604 210.939 150.936 221.442 148.164 C 225.323 147.140 225.446 147.193 229.372 151.562 C 233.709 156.388 236.982 157.232 240.171 154.345 C 241.580 153.070 242.000 151.220 242.000 146.283 C 242.000 138.239 244.310 131.036 248.033 127.469 C 250.690 124.923 251.348 124.758 256.704 125.302 C 259.892 125.625 263.625 126.146 265.000 126.460 C 266.375 126.774 269.637 126.529 272.248 125.916 C 275.925 125.053 277.843 123.808 280.748 120.401 C 284.313 116.219 284.773 115.996 290.000 115.920 C 293.025 115.875 297.525 115.250 300.000 114.529 C 307.978 112.207 309.056 112.689 312.678 120.197 M 320.329 334.384 C 327.576 337.336 328.746 338.396 327.035 340.458 C 325.353 342.485 326.776 344.226 333.794 348.725 C 336.987 350.771 339.734 353.471 340.714 355.525 C 343.137 360.608 347.465 362.272 356.057 361.426 C 360.202 361.017 363.973 360.037 365.284 359.027 C 367.097 357.629 377.974 354.674 378.707 355.381 C 378.820 355.490 378.321 357.587 377.597 360.040 C 376.323 364.355 376.124 364.522 371.466 365.192 C 368.609 365.603 365.851 365.455 364.682 364.830 C 361.063 362.893 355.566 364.516 349.777 369.231 C 345.694 372.557 343.123 373.848 339.637 374.326 C 333.154 375.215 329.843 377.158 323.530 383.780 C 318.477 389.081 317.748 389.500 313.589 389.500 C 307.284 389.500 306.360 388.242 308.518 382.593 C 310.427 377.593 310.123 371.058 307.854 368.324 C 307.125 367.446 304.618 365.908 302.282 364.907 C 299.947 363.906 296.702 362.100 295.071 360.894 C 293.440 359.689 290.412 358.427 288.342 358.091 L 284.578 357.479 291.539 353.425 C 295.368 351.195 301.477 348.137 305.115 346.630 C 312.333 343.640 314.340 341.151 312.828 337.065 C 311.898 334.551 312.348 331.997 313.719 332.005 C 314.148 332.007 317.123 333.078 320.329 334.384 "/></g>
<g fill="#71BBBCFF">
<path d="M 300.000 114.529 C 297.525 115.250 293.025 115.875 290.000 115.920 C 284.773 115.996 284.313 116.219 280.748 120.401 C 277.843 123.808 275.925 125.053 272.248 125.916 C 269.637 126.529 266.375 126.774 265.000 126.460 C 263.625 126.146 259.892 125.625 256.704 125.302 C 251.348 124.758 250.690 124.923 248.033 127.469 C 244.310 131.036 242.000 138.239 242.000 146.283 C 242.000 151.220 241.580 153.070 240.171 154.345 C 236.982 157.232 233.709 156.388 229.372 151.562 C 225.446 147.193 225.323 147.140 221.442 148.164 C 210.939 150.936 209.397 150.604 205.568 144.750 C 203.417 141.460 202.121 141.331 198.650 144.060 C 194.417 147.390 190.070 147.567 186.056 144.571 C 183.061 142.335 181.616 142.000 174.983 142.000 C 167.937 142.000 166.635 141.647 157.927 137.376 C 139.606 128.388 123.861 124.532 108.077 125.166 L 98.281 125.559 94.675 129.383 C 91.363 132.894 90.698 133.177 86.534 132.846 C 83.006 132.566 81.997 132.820 81.985 133.993 C 81.971 135.331 81.861 135.332 81.000 134.000 C 78.827 130.638 80.089 139.142 82.591 144.721 C 90.929 163.317 89.865 170.892 77.511 180.916 C 69.497 187.418 56.601 200.937 54.456 205.086 C 52.982 207.936 52.922 209.208 53.973 215.418 C 55.746 225.905 54.257 228.631 45.762 230.447 C 42.943 231.049 40.001 235.522 38.603 241.329 C 37.997 243.849 38.663 244.914 44.711 251.099 C 51.452 257.992 51.523 258.033 54.732 256.808 C 58.406 255.406 64.045 256.513 71.340 260.067 C 73.628 261.182 78.425 262.327 82.000 262.611 C 91.941 263.402 92.801 263.743 95.631 268.019 C 97.080 270.208 98.691 272.000 99.210 272.000 C 99.729 272.000 101.543 270.611 103.241 268.913 C 107.236 264.917 109.819 264.000 117.073 264.000 C 122.858 264.000 123.202 263.844 129.965 258.166 C 137.587 251.766 143.596 249.264 153.631 248.314 C 162.545 247.469 165.999 248.463 173.567 254.049 C 177.290 256.798 181.498 259.293 182.918 259.596 C 186.801 260.422 192.846 263.132 195.029 265.025 C 198.434 267.979 200.954 275.029 200.978 281.668 C 200.999 287.600 201.131 287.918 204.412 289.945 C 207.632 291.935 210.000 296.186 210.000 299.975 C 210.000 300.897 211.168 302.742 212.595 304.076 C 218.723 309.801 219.695 316.459 215.077 321.077 C 212.433 323.721 211.520 324.000 205.511 324.000 C 201.858 324.000 197.998 323.534 196.934 322.965 C 195.160 322.015 195.000 322.289 195.000 326.264 C 195.000 329.410 194.183 331.819 192.022 335.049 C 190.384 337.497 187.210 342.287 184.968 345.694 C 182.726 349.101 179.321 353.267 177.402 354.952 L 173.912 358.016 176.521 359.008 C 180.145 360.386 180.235 360.369 187.772 356.929 C 194.845 353.700 198.712 353.036 203.228 354.277 C 205.835 354.994 205.929 354.895 205.355 352.025 C 204.492 347.711 207.156 344.000 211.116 344.000 C 215.390 344.000 225.571 333.687 229.379 325.500 C 234.264 314.996 239.123 311.479 250.371 310.303 C 257.846 309.522 260.462 307.315 259.399 302.685 C 258.111 297.079 258.358 295.520 260.588 295.202 C 263.605 294.771 264.851 296.849 265.606 303.566 C 266.486 311.399 267.262 312.230 273.324 311.828 C 283.172 311.175 281.009 318.169 269.882 322.955 C 267.197 324.110 265.000 325.257 265.000 325.502 C 265.000 325.748 266.280 326.610 267.844 327.419 C 272.357 329.753 280.274 330.357 288.851 329.023 C 297.304 327.708 299.140 328.103 303.652 332.208 L 305.805 334.165 306.484 331.074 C 307.733 325.386 312.369 324.769 323.000 328.878 C 326.025 330.047 329.738 331.916 331.250 333.032 L 334.000 335.060 334.000 331.482 C 334.000 328.520 334.865 327.040 339.027 322.878 C 344.306 317.599 345.863 317.219 347.487 320.815 C 348.511 323.081 350.000 323.767 350.000 321.973 C 350.000 319.981 356.555 313.761 361.000 311.536 C 363.475 310.296 369.454 308.268 374.287 307.029 C 379.120 305.789 385.615 303.475 388.720 301.887 C 391.825 300.299 395.393 299.000 396.648 299.000 C 397.903 299.000 400.409 297.716 402.215 296.147 C 407.064 291.935 409.338 291.000 414.734 291.000 C 417.410 291.000 420.140 290.460 420.800 289.800 C 421.460 289.140 422.000 286.282 422.000 283.449 C 422.000 275.479 423.434 272.486 427.893 271.150 C 430.903 270.248 432.071 269.169 433.525 265.945 C 434.533 263.709 436.148 261.456 437.114 260.939 C 438.079 260.423 442.248 260.000 446.378 260.000 C 453.004 260.000 454.070 259.739 455.443 257.777 C 457.625 254.663 457.374 251.346 454.490 245.151 C 451.339 238.381 451.364 236.494 454.646 233.452 C 456.101 232.104 456.884 231.000 456.386 231.000 C 455.887 231.000 454.247 229.857 452.740 228.460 C 448.904 224.903 449.043 220.764 453.097 217.780 C 456.549 215.239 459.000 211.180 459.000 208.004 C 459.000 206.145 458.599 205.985 455.443 206.577 C 452.443 207.139 451.309 206.781 448.193 204.284 C 442.866 200.016 441.113 199.235 430.259 196.303 C 420.450 193.653 416.049 193.247 410.500 194.480 C 406.716 195.321 402.006 192.328 397.137 185.989 C 393.163 180.816 392.084 180.723 385.378 184.975 C 379.763 188.536 375.530 188.821 370.018 186.009 C 366.881 184.409 364.971 184.138 360.277 184.629 C 354.926 185.188 354.167 185.011 351.196 182.512 C 346.637 178.676 345.755 176.571 344.971 167.669 C 344.046 157.149 342.585 155.639 333.573 155.887 C 324.600 156.134 320.537 153.699 317.316 146.146 C 315.675 142.297 316.273 138.054 319.115 133.370 L 321.015 130.240 318.461 128.567 C 317.057 127.646 314.454 123.880 312.678 120.197 C 309.056 112.689 307.978 112.207 300.000 114.529 M 226.511 185.765 C 227.809 186.708 236.594 199.595 241.668 208.000 C 250.653 222.879 252.073 231.317 247.216 240.962 C 241.580 252.157 229.291 257.431 216.877 253.983 C 212.199 252.683 204.514 245.897 201.754 240.628 C 198.457 234.333 198.687 225.155 202.328 217.740 C 207.281 207.654 222.908 184.968 224.870 185.015 C 225.217 185.024 225.955 185.361 226.511 185.765 M 148.792 154.750 C 152.632 160.113 157.708 168.325 160.072 173.000 C 163.937 180.641 164.369 182.207 164.342 188.500 C 164.285 202.261 155.245 212.533 142.148 213.720 C 132.692 214.578 123.715 209.489 118.258 200.178 C 116.004 196.331 115.560 194.398 115.580 188.533 C 115.602 182.412 116.094 180.535 119.372 174.057 C 121.443 169.964 124.081 165.239 125.233 163.557 C 134.428 150.136 138.533 145.000 140.066 145.000 C 141.129 145.000 144.539 148.810 148.792 154.750 M 373.423 218.417 C 377.619 224.718 382.261 232.489 383.738 235.687 C 392.546 254.755 382.187 273.540 363.000 273.291 C 355.271 273.191 350.551 271.351 345.775 266.575 C 340.438 261.238 338.500 256.539 338.502 248.943 C 338.504 243.405 339.077 241.231 342.187 234.943 C 346.444 226.338 351.911 217.729 357.879 210.234 C 361.405 205.806 362.368 205.127 363.933 205.964 C 364.956 206.512 369.227 212.115 373.423 218.417 M 303.616 156.778 C 307.530 162.675 311.492 168.986 312.419 170.802 C 314.545 174.965 314.683 184.789 312.670 188.644 C 306.540 200.383 291.280 203.399 281.513 194.802 C 273.642 187.874 272.613 179.637 278.230 168.506 C 281.796 161.439 293.251 145.999 294.906 146.028 C 295.807 146.044 299.594 150.718 303.616 156.778 M 297.597 257.765 C 300.482 259.698 311.727 277.891 312.317 281.581 C 313.906 291.521 306.111 301.000 296.348 301.000 C 292.132 301.000 285.285 297.198 283.082 293.633 C 278.381 286.027 279.521 279.409 287.507 267.938 C 289.589 264.947 292.158 261.263 293.215 259.750 C 295.244 256.846 295.829 256.581 297.597 257.765 "/></g>
<g fill="#006766FF">
<path d="M 220.763 189.250 C 215.756 195.367 205.629 211.019 202.328 217.740 C 198.687 225.155 198.457 234.333 201.754 240.628 C 204.514 245.897 212.199 252.683 216.877 253.983 C 229.291 257.431 241.580 252.157 247.216 240.962 C 253.126 229.225 250.186 219.758 232.633 194.000 C 227.706 186.770 226.218 185.048 224.870 185.015 C 224.524 185.007 222.676 186.913 220.763 189.250 M 231.831 205.250 C 241.535 219.717 243.297 223.488 243.392 230.000 C 243.641 246.945 223.308 254.924 211.409 242.551 C 204.872 235.754 204.068 228.932 208.691 219.500 C 210.165 216.494 224.205 195.000 224.695 195.000 C 224.838 195.000 228.049 199.613 231.831 205.250 "/></g>
<g fill="#006766FF">
<path d="M 132.824 152.750 C 123.936 165.282 123.316 166.264 119.372 174.057 C 116.094 180.535 115.602 182.412 115.580 188.533 C 115.560 194.398 116.004 196.331 118.258 200.178 C 123.715 209.489 132.692 214.578 142.148 213.720 C 155.245 212.533 164.285 202.261 164.342 188.500 C 164.369 182.207 163.937 180.641 160.072 173.000 C 154.494 161.972 142.368 145.000 140.066 145.000 C 139.030 145.000 136.091 148.145 132.824 152.750 M 147.716 165.250 C 157.475 180.275 159.826 188.037 156.936 195.685 C 155.633 199.134 151.425 203.695 147.800 205.589 C 143.846 207.655 135.145 207.386 131.366 205.081 C 122.782 199.847 119.949 190.229 123.978 180.000 C 126.321 174.051 138.637 155.000 140.140 155.000 C 140.646 155.000 144.055 159.613 147.716 165.250 "/></g>
<g fill="#006766FF">
<path d="M 357.879 210.234 C 351.911 217.729 346.444 226.338 342.187 234.943 C 336.011 247.428 337.211 258.011 345.775 266.575 C 350.551 271.351 355.271 273.191 363.000 273.291 C 373.270 273.424 380.521 268.805 385.001 259.275 C 387.979 252.939 387.490 243.810 383.738 235.687 C 380.247 228.130 366.334 207.249 363.933 205.964 C 362.368 205.127 361.405 205.806 357.879 210.234 M 370.000 225.222 C 380.947 242.404 382.582 247.570 379.568 255.462 C 375.166 266.986 360.528 270.793 351.407 262.784 C 343.979 256.262 342.883 247.936 348.095 237.624 C 351.513 230.861 361.881 214.994 362.872 215.010 C 363.217 215.015 366.425 219.611 370.000 225.222 "/></g>
<g fill="#71BBBCFF">
<path d="M 312.433 333.315 C 312.155 334.039 312.333 335.726 312.828 337.065 C 314.340 341.151 312.333 343.640 305.115 346.630 C 301.477 348.137 295.368 351.195 291.539 353.425 L 284.578 357.479 288.342 358.091 C 290.412 358.427 293.440 359.689 295.071 360.894 C 296.702 362.100 299.947 363.906 302.282 364.907 C 304.618 365.908 307.125 367.446 307.854 368.324 C 310.123 371.058 310.427 377.593 308.518 382.593 C 306.360 388.242 307.284 389.500 313.589 389.500 C 317.748 389.500 318.477 389.081 323.530 383.780 C 329.843 377.158 333.154 375.215 339.637 374.326 C 343.123 373.848 345.694 372.557 349.777 369.231 C 355.566 364.516 361.063 362.893 364.682 364.830 C 365.851 365.455 368.609 365.603 371.466 365.192 C 376.124 364.522 376.323 364.355 377.597 360.040 C 378.321 357.587 378.820 355.490 378.707 355.381 C 377.974 354.674 367.097 357.629 365.284 359.027 C 363.973 360.037 360.202 361.017 356.057 361.426 C 347.465 362.272 343.137 360.608 340.714 355.525 C 339.734 353.471 336.987 350.771 333.794 348.725 C 326.776 344.226 325.353 342.485 327.035 340.458 C 328.746 338.396 327.576 337.336 320.329 334.384 C 313.551 331.623 313.105 331.562 312.433 333.315 "/></g>
<g fill="#006766FF">
<path d="M 286.782 155.250 C 275.429 171.330 273.106 177.627 275.524 185.768 C 280.574 202.776 304.331 204.615 312.670 188.644 C 314.683 184.789 314.545 174.965 312.419 170.802 C 308.588 163.300 296.397 146.055 294.906 146.028 C 294.015 146.012 290.430 150.082 286.782 155.250 M 298.372 160.955 C 304.011 168.804 308.000 176.431 308.000 179.363 C 308.000 183.380 305.495 188.629 302.706 190.457 C 295.831 194.962 288.909 194.139 284.044 188.237 C 280.758 184.250 279.990 178.829 282.125 174.684 C 283.499 172.016 294.131 156.000 294.528 156.000 C 294.684 156.000 296.414 158.230 298.372 160.955 "/></g>
<g fill="#71BBBCFF">
<path d="M 217.298 205.750 C 209.369 217.694 207.691 220.789 206.204 226.201 C 203.037 237.736 215.480 250.569 227.765 248.437 C 232.917 247.543 238.304 243.863 241.113 239.317 C 244.267 234.215 244.225 226.284 241.009 220.000 C 238.877 215.833 225.282 195.000 224.695 195.000 C 224.551 195.000 221.223 199.838 217.298 205.750 "/></g>
<g fill="#71BBBCFF">
<path d="M 132.683 164.750 C 124.328 177.209 121.673 183.795 122.232 190.678 C 123.000 200.136 130.379 206.990 139.800 206.996 C 145.733 207.000 149.227 205.524 153.186 201.339 C 158.337 195.896 159.372 188.623 156.187 180.261 C 154.112 174.815 141.525 155.000 140.140 155.000 C 139.635 155.000 136.279 159.388 132.683 164.750 M 153.810 190.708 C 154.278 195.538 148.784 201.191 143.447 201.368 C 140.204 201.477 139.452 201.143 139.229 199.500 C 139.024 197.997 139.962 197.081 143.003 195.814 C 145.978 194.574 147.450 193.167 148.565 190.498 C 150.482 185.911 153.355 186.026 153.810 190.708 "/></g>
<g fill="#71BBBCFF">
<path d="M 356.716 223.250 C 342.585 244.345 341.300 253.910 351.407 262.784 C 357.669 268.283 368.268 268.338 374.456 262.904 C 381.049 257.116 382.524 248.266 378.372 239.416 C 376.014 234.387 363.715 215.023 362.872 215.010 C 362.526 215.004 359.756 218.713 356.716 223.250 M 377.000 249.567 C 377.000 255.379 370.165 262.330 365.000 261.771 C 361.781 261.422 361.616 258.000 364.743 256.441 C 368.210 254.712 371.000 251.860 371.000 250.045 C 371.000 249.140 371.519 247.881 372.153 247.247 C 373.607 245.793 377.000 247.417 377.000 249.567 "/></g>
<g fill="#006766FF">
<path d="M 293.215 259.750 C 292.158 261.263 289.589 264.947 287.507 267.938 C 279.521 279.409 278.381 286.027 283.082 293.633 C 285.285 297.198 292.132 301.000 296.348 301.000 C 302.953 301.000 310.217 295.447 311.995 289.038 C 313.668 283.009 312.120 278.236 305.186 268.043 C 296.750 255.642 296.302 255.332 293.215 259.750 M 301.105 273.024 C 306.511 280.876 307.634 284.873 305.563 288.879 C 300.538 298.595 287.000 295.428 287.000 284.536 C 287.000 280.858 287.819 278.735 291.250 273.513 C 293.588 269.956 295.926 267.177 296.447 267.338 C 296.967 267.499 299.064 270.058 301.105 273.024 "/></g>
<g fill="#71BBBCFF">
<path d="M 288.747 164.250 C 281.509 175.113 281.000 176.194 281.000 180.706 C 281.000 185.630 285.629 191.528 290.563 192.890 C 296.814 194.616 304.185 191.194 306.584 185.454 C 308.691 180.410 308.330 177.246 304.966 171.286 C 302.081 166.174 295.134 156.000 294.528 156.000 C 294.371 156.000 291.770 159.713 288.747 164.250 "/></g>
<g fill="#71BBBCFF">
<path d="M 291.250 273.513 C 287.819 278.735 287.000 280.858 287.000 284.536 C 287.000 292.323 293.793 296.900 300.560 293.673 C 305.389 291.370 307.563 286.737 306.016 282.050 C 304.730 278.152 298.010 267.822 296.447 267.338 C 295.926 267.177 293.588 269.956 291.250 273.513 "/></g>
<g fill="#006766FF">
<path d="M 372.153 247.247 C 371.519 247.881 371.000 249.140 371.000 250.045 C 371.000 251.860 368.210 254.712 364.743 256.441 C 361.616 258.000 361.781 261.422 365.000 261.771 C 370.165 262.330 377.000 255.379 377.000 249.567 C 377.000 247.417 373.607 245.793 372.153 247.247 "/></g>
<g fill="#006766FF">
<path d="M 148.565 190.498 C 147.450 193.167 145.978 194.574 143.003 195.814 C 139.962 197.081 139.024 197.997 139.229 199.500 C 139.452 201.143 140.204 201.477 143.447 201.368 C 148.784 201.191 154.278 195.538 153.810 190.708 C 153.355 186.026 150.482 185.911 148.565 190.498 "/></g>
</svg>
