<?xml version="1.0" encoding="utf-8"?>
<!DOCTYPE svg PUBLIC "-//W3C//DTD SVG 20010904//EN" "http://www.w3.org/TR/2001/REC-SVG-20010904/DTD/svg10.dtd">
<svg version="1.0" xmlns="http://www.w3.org/2000/svg" width="502pt" height="502pt" viewBox="0 0 502 502" style="" preserveAspectRatio="xMidYMid meet">
<g fill="#1A6C77FF">
<path d="M 234.500 86.496 C 228.450 87.178 222.150 88.045 220.500 88.424 C 218.850 88.803 215.475 89.584 213.000 90.159 C 159.107 102.690 113.907 143.426 96.115 195.500 C 81.047 239.599 84.871 288.230 106.600 328.871 C 128.177 369.227 165.564 398.138 211.500 409.989 C 277.839 427.104 349.495 398.794 388.652 340.000 C 400.953 321.529 409.159 300.312 413.506 275.737 C 415.455 264.718 415.448 235.242 413.493 224.190 C 407.069 187.865 391.921 158.644 366.479 133.500 C 338.957 106.300 305.060 90.638 263.830 86.071 C 252.410 84.806 249.078 84.855 234.500 86.496 M 273.500 104.530 C 296.436 108.809 309.639 113.445 325.836 122.904 C 339.499 130.884 356.781 145.989 367.760 159.547 C 380.790 175.639 391.495 199.207 395.900 221.500 C 401.631 250.501 398.453 279.645 386.369 308.905 C 369.439 349.899 329.855 383.391 286.000 393.827 C 283.525 394.416 279.025 395.466 276.000 396.161 C 268.440 397.896 233.405 397.916 225.500 396.190 C 213.137 393.490 205.696 391.264 195.500 387.212 C 175.407 379.229 160.742 369.213 144.268 352.222 C 131.898 339.465 122.233 324.834 115.614 308.844 C 110.609 296.753 109.748 293.950 105.831 277.000 C 103.074 265.072 104.433 225.355 107.986 214.000 C 108.416 212.625 109.322 209.475 109.998 207.000 C 110.674 204.525 111.571 201.600 111.990 200.500 C 121.350 175.918 132.126 159.542 150.029 142.688 C 172.148 121.867 197.110 109.744 229.500 104.096 C 237.954 102.621 264.686 102.885 273.500 104.530 "/></g>
<g fill="#1A6C77FF">
<path d="M 246.000 171.000 C 244.088 172.912 244.000 174.333 244.000 203.449 L 244.000 233.898 240.550 236.529 C 235.501 240.381 232.599 246.969 233.310 252.969 L 233.879 257.772 214.939 276.671 C 194.570 296.998 193.899 298.060 198.073 303.365 C 199.608 305.317 201.054 306.000 203.654 306.000 C 206.869 306.000 208.767 304.412 226.331 287.020 C 245.183 268.354 245.571 268.040 249.782 268.020 C 266.194 267.943 273.753 249.080 261.896 237.790 L 258.000 234.080 258.000 203.540 C 258.000 174.333 257.913 172.913 256.000 171.000 C 254.889 169.889 252.667 169.000 251.000 169.000 C 249.333 169.000 247.111 169.889 246.000 171.000 "/></g>
<g fill="#1A6C77FF">
<path d="M 245.655 118.829 C 244.368 120.251 244.000 122.698 244.000 129.829 C 244.000 137.667 244.291 139.291 246.000 141.000 C 248.571 143.571 252.039 143.544 255.365 140.927 C 257.860 138.965 258.000 138.381 258.000 129.927 C 258.000 122.333 257.701 120.701 256.000 119.000 C 253.446 116.446 247.894 116.355 245.655 118.829 "/></g>
<g fill="#1A6C77FF">
<path d="M 119.189 245.039 C 116.016 247.995 116.231 253.250 119.635 255.927 C 121.667 257.526 123.710 258.000 128.570 258.000 C 132.035 258.000 135.954 257.588 137.279 257.084 C 142.372 255.148 142.918 246.632 138.114 244.061 C 137.023 243.477 132.812 243.000 128.754 243.000 C 122.712 243.000 120.981 243.369 119.189 245.039 "/></g>
<g fill="#1A6C77FF">
<path d="M 365.285 244.476 C 359.272 247.090 359.558 255.082 365.756 257.671 C 370.289 259.566 378.752 259.048 382.408 256.652 C 385.179 254.837 385.899 250.548 384.021 247.039 C 381.968 243.203 371.505 241.772 365.285 244.476 "/></g>
<g fill="#1A6C77FF">
<path d="M 246.223 360.557 C 244.197 361.975 244.000 362.937 244.000 371.402 C 244.000 379.440 244.271 380.935 246.013 382.512 C 248.864 385.092 253.880 384.867 256.156 382.056 C 258.939 378.619 258.829 363.829 256.000 361.000 C 253.607 358.607 249.285 358.412 246.223 360.557 "/></g>
</svg>
