<?xml version="1.0" encoding="utf-8"?>
<!DOCTYPE svg PUBLIC "-//W3C//DTD SVG 20010904//EN" "http://www.w3.org/TR/2001/REC-SVG-20010904/DTD/svg10.dtd">
<svg version="1.0" xmlns="http://www.w3.org/2000/svg" width="502pt" height="502pt" viewBox="0 0 502 502" style="" preserveAspectRatio="xMidYMid meet">
<g fill="#156775FF">
<path d="M 237.500 100.945 C 235.850 101.366 232.025 102.267 229.000 102.947 C 216.884 105.670 205.279 111.002 195.000 118.570 C 160.675 143.840 146.667 188.004 160.133 228.493 C 163.675 239.139 180.217 272.618 186.154 281.154 C 187.169 282.614 188.000 284.039 188.000 284.321 C 188.000 285.384 216.692 332.341 236.004 362.887 C 245.788 378.361 246.766 379.564 250.273 380.431 C 256.740 382.030 256.808 381.950 279.933 345.714 C 292.885 325.419 314.000 291.090 314.000 290.327 C 314.000 290.042 314.847 288.614 315.883 287.154 C 322.718 277.519 341.336 240.993 345.015 230.000 C 350.923 212.351 351.920 191.381 347.641 174.794 C 335.942 129.441 297.759 99.718 251.674 100.090 C 245.528 100.140 239.150 100.525 237.500 100.945 M 272.849 124.025 C 298.387 131.102 317.964 150.049 326.036 175.500 C 329.404 186.121 329.854 202.805 327.085 214.416 C 324.598 224.842 317.870 241.223 311.498 252.365 C 309.024 256.691 307.000 260.628 307.000 261.115 C 307.000 261.602 306.550 262.000 306.000 262.000 C 305.450 262.000 305.000 262.455 305.000 263.012 C 305.000 264.325 288.168 292.572 276.703 310.500 C 271.779 318.200 266.793 326.115 265.625 328.089 C 258.087 340.822 253.383 347.908 252.621 347.679 C 251.800 347.432 236.000 323.353 236.000 322.349 C 236.000 322.097 234.266 319.327 232.146 316.195 C 230.026 313.063 222.106 300.150 214.546 287.500 C 206.987 274.850 199.442 262.250 197.780 259.500 C 193.409 252.266 182.624 229.521 180.195 222.412 C 173.686 203.363 175.253 180.233 184.251 162.523 C 192.808 145.683 212.025 130.319 232.000 124.349 C 242.418 121.235 262.213 121.078 272.849 124.025 "/></g>
<g fill="#156775FF">
<path d="M 242.725 153.505 C 230.465 156.605 221.931 162.487 214.873 172.702 C 209.087 181.077 207.785 185.552 207.751 197.189 C 207.722 207.354 207.890 208.236 211.197 215.189 C 215.332 223.882 222.964 232.574 229.664 236.220 C 238.688 241.132 243.412 242.203 254.448 241.837 C 263.820 241.526 265.200 241.211 272.058 237.807 C 285.194 231.289 294.980 218.259 296.895 204.738 C 298.124 196.060 296.630 185.161 293.272 178.303 C 290.162 171.951 282.114 162.729 276.699 159.310 C 267.134 153.272 253.118 150.877 242.725 153.505 M 264.209 175.178 C 278.216 182.926 280.580 202.725 268.952 214.893 C 264.287 219.774 260.284 221.366 252.500 221.437 C 246.577 221.490 244.772 221.072 240.767 218.718 C 232.815 214.044 228.057 206.046 228.015 197.288 C 227.972 188.073 236.077 176.758 245.000 173.579 C 250.845 171.497 258.743 172.155 264.209 175.178 "/></g>
</svg>
