<?xml version="1.0" encoding="utf-8"?>
<!DOCTYPE svg PUBLIC "-//W3C//DTD SVG 20010904//EN" "http://www.w3.org/TR/2001/REC-SVG-20010904/DTD/svg10.dtd">
<svg version="1.0" xmlns="http://www.w3.org/2000/svg" width="502pt" height="502pt" viewBox="0 0 502 502" style="" preserveAspectRatio="xMidYMid meet">
<g fill="#186B79FF">
<path d="M 112.019 136.727 C 108.078 137.478 99.019 143.992 95.868 148.341 C 94.282 150.531 92.513 153.938 91.939 155.911 C 91.236 158.326 90.993 189.916 91.197 252.500 L 91.500 345.500 93.885 349.975 C 96.696 355.249 100.597 359.090 106.913 362.803 L 111.500 365.500 251.000 365.500 L 390.500 365.500 395.086 363.217 C 403.943 358.808 409.362 350.996 411.032 340.230 C 411.714 335.826 411.973 303.429 411.781 246.500 C 411.503 164.183 411.386 159.219 409.601 154.279 C 407.485 148.421 401.951 142.606 394.926 138.860 L 390.500 136.500 252.500 136.378 C 176.600 136.310 113.384 136.468 112.019 136.727 M 302.884 266.500 C 306.434 269.800 315.448 278.350 322.916 285.500 C 330.383 292.650 340.748 302.550 345.950 307.500 C 365.959 326.541 387.000 347.391 387.000 348.178 C 387.000 349.183 115.623 349.290 114.618 348.285 C 114.225 347.891 116.062 345.597 118.701 343.187 C 121.341 340.777 129.597 332.886 137.049 325.653 C 144.500 318.419 154.175 309.117 158.549 304.982 C 162.922 300.847 173.700 290.655 182.500 282.333 C 206.733 259.417 210.428 256.046 211.333 256.022 C 211.792 256.010 215.873 259.298 220.403 263.328 C 235.425 276.693 240.588 279.348 251.426 279.278 C 261.286 279.214 267.312 276.115 280.271 264.439 L 290.500 255.223 293.465 257.861 C 295.095 259.313 299.334 263.200 302.884 266.500 M 365.945 166.982 C 357.450 174.397 350.275 180.726 350.000 181.047 C 349.725 181.368 340.050 189.883 328.500 199.970 C 316.950 210.057 305.667 219.928 303.427 221.905 C 277.351 244.919 258.370 260.717 255.644 261.675 C 253.805 262.321 250.498 262.608 248.294 262.313 C 244.337 261.782 235.819 254.894 201.000 224.068 C 197.425 220.903 184.600 209.600 172.500 198.950 C 160.400 188.301 149.880 178.980 149.122 178.237 C 148.364 177.495 141.727 171.672 134.372 165.298 C 127.017 158.923 121.000 153.547 121.000 153.350 C 121.000 153.154 179.588 153.107 251.195 153.246 L 381.390 153.500 365.945 166.982 M 114.060 169.638 C 117.052 172.190 123.312 177.702 127.971 181.888 C 132.630 186.075 137.805 190.679 139.471 192.119 C 147.573 199.124 171.381 220.095 178.391 226.401 C 182.731 230.306 187.231 234.322 188.391 235.328 C 194.674 240.772 198.073 244.272 197.803 245.020 C 197.637 245.482 193.900 249.113 189.500 253.089 C 180.154 261.533 154.336 285.904 127.667 311.456 C 117.309 321.380 108.422 329.650 107.917 329.833 C 107.366 330.034 107.000 297.244 107.000 247.583 C 107.000 202.163 107.364 165.000 107.810 165.000 C 108.255 165.000 111.068 167.087 114.060 169.638 M 395.000 247.583 C 395.000 296.372 394.630 330.030 394.096 329.833 C 393.249 329.521 371.098 308.568 345.112 283.500 C 338.841 277.450 332.748 271.600 331.572 270.500 C 330.397 269.400 323.661 263.118 316.604 256.539 L 303.772 244.579 309.693 239.039 C 312.949 235.993 318.715 230.800 322.506 227.500 C 330.281 220.732 353.965 199.895 364.413 190.630 C 385.970 171.516 393.551 165.000 394.235 165.000 C 394.656 165.000 395.000 202.163 395.000 247.583 "/></g>
</svg>
