<?xml version="1.0" encoding="utf-8"?>
<!DOCTYPE svg PUBLIC "-//W3C//DTD SVG 20010904//EN" "http://www.w3.org/TR/2001/REC-SVG-20010904/DTD/svg10.dtd">
<svg version="1.0" xmlns="http://www.w3.org/2000/svg" width="502pt" height="502pt" viewBox="0 0 502 502" style="" preserveAspectRatio="xMidYMid meet">
<g fill="#1A6E78FF">
<path d="M 171.481 107.804 C 158.808 113.152 146.509 120.997 140.729 127.421 C 136.580 132.032 132.445 139.659 129.843 147.500 C 127.807 153.634 127.535 156.294 127.645 169.000 C 127.785 185.140 129.347 193.476 135.699 212.000 C 142.310 231.275 162.196 266.816 175.443 283.030 C 177.451 285.489 180.758 289.525 182.792 292.000 C 189.897 300.648 206.586 317.377 217.214 326.505 C 237.988 344.347 256.349 355.829 277.307 364.083 C 313.525 378.347 340.327 377.095 359.050 360.265 C 363.834 355.963 373.983 341.955 377.867 334.290 C 380.701 328.697 380.805 318.833 378.078 314.360 C 376.353 311.531 341.336 287.055 327.166 278.773 C 321.722 275.592 315.525 275.160 310.749 277.630 C 307.162 279.485 307.504 279.155 299.495 288.482 C 288.703 301.051 286.768 302.934 282.543 304.979 C 280.247 306.091 277.048 306.999 275.434 306.997 C 266.481 306.990 233.445 279.671 215.495 257.430 C 202.377 241.176 190.033 220.682 190.010 215.118 C 189.992 210.825 193.855 206.363 203.516 199.514 C 217.560 189.559 222.472 184.276 224.006 177.473 C 225.073 172.743 223.932 169.018 218.158 158.379 C 215.508 153.496 210.711 144.550 207.497 138.500 C 192.567 110.389 192.235 109.917 185.536 107.326 C 181.233 105.662 176.148 105.835 171.481 107.804 "/></g>
</svg>
