<?xml version="1.0" standalone="no"?>
<!DOCTYPE svg PUBLIC "-//W3C//DTD SVG 20010904//EN"
 "http://www.w3.org/TR/2001/REC-SVG-20010904/DTD/svg10.dtd">
<svg version="1.0" xmlns="http://www.w3.org/2000/svg"
 width="864.000000pt" height="672.000000pt" viewBox="0 0 864.000000 672.000000"
 preserveAspectRatio="xMidYMid meet">

<g transform="translate(0.000000,672.000000) scale(0.100000,-0.100000)"
fill="#000000" stroke="none">
<path d="M4060 5165 c-263 -36 -557 -154 -780 -313 -126 -89 -309 -271 -409
-407 -120 -162 -223 -372 -280 -570 -95 -328 -87 -723 23 -1062 314 -969 1374
-1479 2346 -1128 165 60 393 191 525 302 74 62 210 201 262 268 128 164 245
393 307 600 49 164 66 272 73 455 27 723 -360 1377 -1000 1689 -184 89 -387
149 -579 170 -128 14 -369 12 -488 -4z m458 -124 c40 -5 76 -12 79 -15 11 -11
-37 -168 -77 -251 -22 -45 -76 -126 -120 -181 -139 -173 -169 -254 -151 -402
23 -185 15 -220 -66 -282 -64 -48 -92 -96 -105 -176 -10 -64 -15 -73 -68 -129
-77 -82 -114 -139 -142 -218 -12 -37 -25 -67 -28 -67 -14 1 -100 135 -141 219
-47 96 -73 132 -118 163 l-25 17 28 57 c25 52 28 66 24 133 -8 124 -57 195
-194 280 -39 24 -77 53 -85 65 -7 11 -16 54 -20 94 -5 65 -10 77 -38 105 -26
27 -38 32 -79 31 -26 0 -62 -4 -79 -8 -57 -14 -40 15 66 116 244 235 558 388
906 442 102 16 324 19 433 7z m338 -76 c141 -46 326 -139 444 -223 140 -98
321 -283 409 -417 197 -299 284 -583 284 -935 1 -193 -10 -279 -54 -448 -24
-94 -73 -235 -85 -251 -2 -2 -22 13 -45 34 l-42 38 -97 -7 -98 -7 -25 31 c-15
17 -29 46 -32 65 -3 19 -8 52 -11 72 -5 34 -77 165 -112 206 -8 9 -34 22 -56
28 -23 6 -69 24 -104 41 -52 26 -78 32 -155 36 -159 8 -212 -22 -253 -145 -20
-60 -26 -68 -46 -65 -128 15 -122 15 -155 -12 -49 -41 -64 -96 -66 -231 l-2
-117 32 -27 33 -27 -26 -35 c-46 -61 -84 -146 -84 -188 0 -32 8 -49 39 -85 38
-44 39 -45 34 -110 -6 -65 -5 -67 29 -99 46 -44 155 -87 218 -87 46 0 51 -3
61 -27 15 -39 44 -68 90 -88 21 -10 39 -21 39 -26 0 -10 -155 -65 -265 -95
-281 -74 -604 -72 -883 6 -602 168 -1050 651 -1182 1275 -27 128 -38 393 -21
532 31 255 114 486 254 708 28 44 52 82 53 84 2 2 23 -5 48 -14 33 -13 62 -16
101 -12 l55 6 0 -56 c0 -94 45 -150 192 -241 65 -40 99 -87 105 -147 5 -38 1
-52 -27 -95 -55 -86 -42 -153 40 -205 31 -19 49 -44 84 -115 92 -185 185 -303
249 -315 82 -16 125 19 157 126 30 102 40 117 124 207 90 96 95 105 103 184 6
63 7 63 84 139 67 65 80 83 94 133 15 50 15 71 6 151 -25 209 -18 233 116 397
109 135 194 308 219 451 3 20 10 37 15 37 4 0 56 -16 115 -35z m334 -1906 c30
-15 69 -30 87 -34 42 -8 91 -93 103 -177 22 -156 130 -251 262 -234 27 4 54 9
61 12 14 5 67 -65 67 -87 0 -7 -30 -58 -67 -113 -112 -167 -340 -381 -509
-477 l-41 -23 -40 31 c-21 18 -51 37 -66 44 -16 7 -27 20 -27 32 0 35 -31 85
-60 97 -19 8 -50 10 -89 5 -48 -5 -68 -3 -105 14 l-46 20 0 55 c0 64 -9 91
-44 128 -14 15 -26 32 -26 38 0 24 43 93 90 145 71 78 66 131 -15 169 l-35 17
0 72 c0 95 6 103 62 89 92 -23 156 21 189 131 15 50 26 70 42 77 39 15 148 -1
207 -31z"/>
</g>
</svg>
