<?xml version="1.0" standalone="no"?>
<!DOCTYPE svg PUBLIC "-//W3C//DTD SVG 20010904//EN"
 "http://www.w3.org/TR/2001/REC-SVG-20010904/DTD/svg10.dtd">
<svg version="1.0" xmlns="http://www.w3.org/2000/svg"
 width="864.000000pt" height="672.000000pt" viewBox="0 0 864.000000 672.000000"
 preserveAspectRatio="xMidYMid meet">

<g transform="translate(0.000000,672.000000) scale(0.100000,-0.100000)"
fill="#000000" stroke="none">
<path d="M4257 5078 c-589 -1004 -925 -1673 -1025 -2039 -60 -219 -57 -460 10
-669 140 -441 507 -738 973 -791 116 -13 255 -2 386 32 430 108 757 465 835
910 24 137 15 359 -20 491 -82 312 -340 854 -761 1598 -184 325 -324 560 -335
560 -5 0 -33 -42 -63 -92z m-769 -2249 c40 -14 49 -41 56 -164 7 -122 26 -195
77 -301 94 -193 277 -347 479 -403 86 -24 113 -46 113 -92 0 -79 -85 -88 -238
-25 -278 113 -486 347 -559 631 -27 103 -39 255 -24 300 10 31 40 61 64 65 1
0 15 -5 32 -11z"/>
</g>
</svg>
