<?xml version="1.0" standalone="no"?>
<!DOCTYPE svg PUBLIC "-//W3C//DTD SVG 20010904//EN"
 "http://www.w3.org/TR/2001/REC-SVG-20010904/DTD/svg10.dtd">
<svg version="1.0" xmlns="http://www.w3.org/2000/svg"
 width="792.000000pt" height="744.000000pt" viewBox="0 0 792.000000 744.000000"
 preserveAspectRatio="xMidYMid meet">

<g transform="translate(0.000000,744.000000) scale(0.100000,-0.100000)"
fill="#000000" stroke="none">
<path d="M666 6889 l-290 -290 85 -85 85 -85 143 146 c79 80 146 143 150 140
3 -4 6 -1328 6 -2943 l0 -2937 -237 -3 -236 -2 -4 -68 c-2 -37 -2 -91 0 -119
l3 -53 229 1 c125 1 233 -2 238 -5 7 -4 8 -87 5 -236 l-6 -230 121 0 122 0 0
235 0 235 523 3 c1089 6 5358 4 5362 -2 2 -4 -52 -63 -121 -132 -123 -123
-124 -124 -124 -170 0 -43 4 -50 54 -97 l54 -52 269 271 c311 314 293 296 293
305 0 3 -16 21 -35 40 -19 18 -35 38 -35 44 0 6 -11 16 -25 22 -14 6 -25 17
-25 25 0 15 -69 83 -83 83 -5 0 -51 44 -103 98 -51 53 -98 102 -104 107 -6 6
-40 38 -75 72 -36 34 -67 58 -70 53 -3 -5 -12 -7 -19 -4 -7 3 -31 -14 -54 -37
-37 -36 -42 -47 -42 -87 0 -45 1 -47 126 -170 69 -68 124 -126 121 -128 -5 -5
-5769 -5 -5774 0 -4 4 151 240 539 824 48 74 88 144 88 157 0 14 7 26 18 29
23 8 38 28 195 266 71 107 130 196 132 198 1 1 156 -151 344 -339 l342 -341
27 18 c24 15 106 78 297 224 33 26 116 89 185 142 69 53 166 128 215 167 84
66 91 69 106 53 9 -9 81 -107 160 -217 78 -110 219 -306 313 -435 93 -129 183
-254 200 -277 16 -24 33 -43 37 -43 8 0 140 110 394 330 99 86 252 218 339
293 l159 137 713 0 c598 0 714 2 721 14 4 8 17 15 28 17 38 8 44 141 8 181
-15 17 -61 18 -791 18 l-774 0 -206 -177 c-114 -98 -250 -216 -303 -263 -191
-169 -250 -215 -260 -199 -4 8 -37 53 -71 100 -35 48 -159 221 -277 385 l-214
298 28 21 c16 11 60 45 99 75 39 31 157 121 261 200 105 79 222 169 262 200
39 30 122 93 184 140 62 47 127 98 146 114 18 16 35 27 38 25 2 -2 139 -139
305 -303 l301 -299 615 614 c380 379 617 624 621 639 8 35 54 84 65 68 5 -9
24 3 62 41 47 46 54 59 49 80 -3 14 -10 28 -15 29 -4 2 -6 8 -3 13 12 19 -18
50 -76 79 -60 30 -79 31 -79 6 0 -8 -12 -22 -27 -32 -16 -10 -293 -281 -616
-603 -324 -322 -591 -587 -595 -589 -4 -1 -135 126 -292 283 -157 157 -289
285 -293 285 -9 0 -99 -68 -827 -626 -129 -99 -261 -200 -293 -223 l-57 -44
-23 29 c-21 27 -641 885 -770 1066 -34 48 -64 88 -67 88 -5 0 -160 -233 -443
-665 -106 -162 -268 -400 -283 -415 -3 -2 -132 123 -288 279 -186 186 -289
282 -298 278 -7 -4 -114 -88 -238 -186 l-225 -180 -3 796 -2 795 475 477 475
476 832 -832 833 -833 447 447 447 447 327 -328 326 -329 739 739 c406 406
739 746 739 755 0 8 22 40 50 70 27 30 50 61 50 70 0 9 -25 42 -55 73 -53 54
-75 67 -75 46 0 -5 -6 -7 -12 -5 -7 3 -325 -307 -718 -700 -388 -388 -710
-705 -715 -705 -6 0 -156 145 -334 322 l-324 321 -257 -259 c-141 -142 -299
-306 -349 -364 -51 -58 -112 -117 -135 -131 -22 -15 -63 -50 -91 -78 -27 -28
-54 -51 -59 -51 -6 0 -381 371 -833 825 -453 454 -827 825 -831 825 -4 0 -220
-213 -479 -472 l-473 -473 0 965 0 965 149 -149 c127 -127 151 -147 167 -138
23 12 144 137 144 148 0 9 -571 584 -580 584 -3 0 -135 -131 -294 -291z m2302
-3666 c113 -158 455 -629 519 -717 24 -32 40 -62 37 -67 -3 -5 -40 -35 -82
-67 -42 -31 -144 -109 -226 -172 -82 -63 -192 -147 -245 -187 l-96 -72 -282
282 c-156 155 -283 286 -283 292 0 5 32 57 70 115 38 58 70 113 70 122 0 23
21 68 32 68 4 0 8 6 8 14 0 7 11 25 25 40 14 15 25 31 25 35 0 4 16 22 35 39
19 18 42 46 51 63 9 17 35 55 57 83 23 28 73 99 112 159 38 59 70 107 72 107
1 0 46 -62 101 -137z m-1200 -507 c127 -127 222 -230 220 -238 -1 -8 -52 -90
-113 -184 -123 -189 -773 -1164 -786 -1178 -5 -6 -9 313 -8 725 l0 734 227
182 c125 100 229 182 232 182 3 1 106 -100 228 -223z"/>
</g>
</svg>
