<?xml version="1.0" encoding="utf-8"?>
<!DOCTYPE svg PUBLIC "-//W3C//DTD SVG 20010904//EN" "http://www.w3.org/TR/2001/REC-SVG-20010904/DTD/svg10.dtd">
<svg version="1.0" xmlns="http://www.w3.org/2000/svg" width="1026pt" height="1026pt" viewBox="0 0 1026 1026" style="" preserveAspectRatio="xMidYMid meet">
<g fill="#00657DFF">
<path d="M 503.999 385.326 C 504.000 385.780 501.958 386.026 499.463 385.872 C 496.968 385.719 495.179 385.845 495.487 386.154 C 496.315 386.981 484.953 389.089 483.733 388.335 C 483.099 387.943 482.994 388.181 483.464 388.942 C 483.998 389.806 483.660 390.077 482.368 389.817 C 481.341 389.611 480.050 389.781 479.500 390.195 C 478.203 391.172 457.037 401.921 456.882 401.682 C 456.816 401.582 456.812 401.824 456.872 402.220 C 456.972 402.888 452.807 405.546 452.250 405.169 C 452.113 405.076 452.325 405.000 452.723 405.000 C 453.120 405.000 452.445 405.701 451.223 406.557 C 450.000 407.413 448.947 407.975 448.882 407.807 C 448.816 407.638 448.808 407.813 448.863 408.195 C 448.968 408.922 444.049 412.700 442.750 412.890 C 441.219 413.114 441.029 413.253 442.084 413.375 C 443.438 413.531 437.321 418.130 435.380 418.415 C 434.597 418.530 434.267 418.933 434.645 419.312 C 435.024 419.690 434.808 420.056 434.167 420.125 C 433.525 420.194 432.513 420.306 431.917 420.375 C 431.321 420.444 431.105 420.772 431.437 421.104 C 432.293 421.960 420.912 426.917 417.144 427.330 C 415.418 427.518 414.329 427.996 414.723 428.390 C 415.118 428.784 413.429 429.108 410.970 429.110 C 398.783 429.119 393.421 428.799 392.628 428.016 C 392.149 427.543 391.148 427.390 390.404 427.675 C 389.660 427.961 386.002 427.020 382.276 425.585 C 375.711 423.057 371.972 421.169 373.000 420.900 C 373.275 420.828 373.050 420.709 372.500 420.635 C 371.950 420.561 371.275 420.060 371.000 419.522 C 370.725 418.984 369.949 418.463 369.275 418.364 C 367.831 418.152 363.447 414.832 363.183 413.750 C 363.082 413.338 363.000 413.256 363.000 413.568 C 363.000 413.881 361.658 413.181 360.018 412.013 C 358.378 410.845 357.082 409.577 357.137 409.195 C 357.192 408.813 357.184 408.638 357.118 408.807 C 356.915 409.333 353.276 406.541 353.134 405.750 C 353.060 405.338 353.000 405.251 353.000 405.557 C 353.000 405.863 352.000 405.413 350.777 404.557 C 349.555 403.701 348.993 402.966 349.527 402.923 C 350.062 402.881 349.738 402.700 348.807 402.520 C 346.865 402.146 342.189 399.063 343.277 398.875 C 343.675 398.806 343.663 398.672 343.250 398.576 C 339.908 397.800 338.076 396.686 338.640 395.773 C 339.066 395.084 338.835 394.984 338.003 395.498 C 337.189 396.001 336.222 395.657 335.439 394.586 C 334.748 393.641 333.909 392.931 333.574 393.009 C 331.918 393.397 327.055 391.721 327.543 390.930 C 327.852 390.431 327.406 390.291 326.552 390.618 C 325.698 390.946 325.000 390.730 325.000 390.138 C 325.000 389.547 324.325 389.322 323.500 389.638 C 322.675 389.955 322.000 389.730 322.000 389.138 C 322.000 388.547 321.325 388.322 320.500 388.638 C 319.675 388.955 319.000 388.778 319.000 388.246 C 319.000 387.713 317.808 387.505 316.351 387.784 C 314.789 388.082 313.947 387.895 314.299 387.326 C 314.653 386.752 313.600 386.543 311.697 386.809 C 309.939 387.054 308.803 386.932 309.174 386.537 C 309.545 386.142 306.092 385.818 301.500 385.818 C 296.908 385.818 293.357 386.024 293.608 386.274 C 293.859 386.525 292.684 387.302 290.998 388.001 C 289.312 388.699 287.047 390.395 285.966 391.770 C 284.885 393.145 283.948 394.097 283.885 393.885 C 283.821 393.673 283.665 393.950 283.537 394.500 C 283.409 395.050 283.201 395.275 283.075 395.000 C 282.341 393.398 282.462 402.263 283.229 406.199 C 284.505 412.750 289.957 417.660 296.992 418.593 C 299.783 418.964 301.798 419.535 301.470 419.864 C 301.141 420.192 302.527 420.318 304.549 420.144 C 306.669 419.961 307.978 420.226 307.643 420.769 C 307.317 421.296 308.080 421.516 309.372 421.269 C 310.644 421.026 312.322 421.465 313.101 422.244 C 313.880 423.023 315.139 423.454 315.898 423.201 C 316.816 422.895 317.013 423.171 316.485 424.025 C 315.972 424.854 316.089 425.063 316.814 424.615 C 317.432 424.233 319.639 424.818 321.719 425.916 C 323.799 427.014 325.163 427.988 324.750 428.081 C 323.961 428.259 325.193 428.664 327.167 428.875 C 327.808 428.944 328.024 429.310 327.645 429.688 C 327.267 430.067 327.625 430.475 328.442 430.594 C 330.301 430.867 335.998 434.867 335.863 435.805 C 335.808 436.187 335.816 436.367 335.882 436.204 C 336.121 435.607 345.504 443.192 345.625 444.081 C 345.694 444.586 345.806 444.763 345.875 444.473 C 345.944 444.184 348.356 445.534 351.237 447.473 C 354.117 449.413 356.254 451.052 355.987 451.115 C 355.719 451.179 355.950 451.317 356.500 451.423 C 357.050 451.529 361.011 453.276 365.303 455.306 C 369.595 457.337 375.107 459.502 377.553 460.118 C 379.999 460.734 382.000 461.661 382.000 462.178 C 382.000 462.695 382.419 462.859 382.932 462.542 C 383.444 462.226 386.481 462.274 389.681 462.650 C 392.880 463.026 394.824 463.562 393.999 463.842 C 393.175 464.121 396.863 464.321 402.195 464.287 C 407.528 464.252 411.578 463.887 411.195 463.474 C 410.813 463.062 412.502 462.981 414.948 463.294 C 417.997 463.684 418.941 463.557 417.948 462.890 C 416.910 462.193 417.580 461.994 420.314 462.189 C 422.436 462.340 423.767 462.076 423.314 461.594 C 422.861 461.111 423.706 460.945 425.220 461.219 C 426.909 461.525 427.702 461.327 427.313 460.698 C 426.930 460.077 427.523 459.903 428.845 460.249 C 430.228 460.611 430.766 460.431 430.345 459.749 C 429.926 459.071 430.452 458.885 431.796 459.236 C 432.955 459.540 434.038 459.470 434.202 459.082 C 434.596 458.150 448.124 451.625 449.826 451.546 C 450.555 451.512 450.817 451.151 450.409 450.742 C 449.717 450.050 451.295 449.691 452.570 450.250 C 452.884 450.388 453.576 449.723 454.107 448.773 C 455.117 446.968 462.766 441.339 464.500 441.124 C 465.050 441.056 465.500 440.514 465.500 439.919 C 465.500 438.374 469.105 435.947 470.302 436.687 C 470.856 437.029 471.007 436.820 470.638 436.223 C 469.827 434.911 473.915 431.830 475.317 432.696 C 475.863 433.033 476.018 432.839 475.663 432.264 C 474.882 431.000 479.654 427.668 481.028 428.517 C 481.563 428.848 482.000 428.651 482.000 428.079 C 482.000 426.598 489.846 422.787 491.189 423.617 C 491.812 424.002 492.033 423.862 491.687 423.303 C 490.924 422.068 498.595 419.632 500.175 420.608 C 500.898 421.055 501.031 420.860 500.542 420.068 C 499.973 419.148 500.725 418.909 503.451 419.144 C 505.473 419.318 506.799 419.132 506.397 418.730 C 505.995 418.329 508.940 418.000 512.940 418.000 C 521.163 418.000 534.260 420.771 533.309 422.309 C 532.968 422.861 533.191 423.000 533.807 422.619 C 534.421 422.240 537.528 423.274 540.712 424.917 C 543.895 426.560 546.163 427.982 545.750 428.077 C 544.989 428.253 546.131 428.647 548.059 428.875 C 548.641 428.944 548.797 429.520 548.405 430.155 C 548.012 430.790 548.126 431.040 548.658 430.711 C 549.783 430.016 555.441 433.485 555.625 434.984 C 555.694 435.543 555.806 435.744 555.875 435.432 C 555.944 435.119 557.376 435.844 559.058 437.041 C 560.739 438.238 561.827 439.507 561.474 439.859 C 561.122 440.212 561.208 440.516 561.667 440.535 C 563.685 440.621 566.994 443.201 566.373 444.205 C 565.998 444.812 566.129 445.038 566.664 444.708 C 567.914 443.935 579.247 451.419 578.285 452.382 C 577.887 452.780 578.409 452.780 579.445 452.383 C 580.856 451.841 581.123 451.992 580.510 452.985 C 579.973 453.853 580.078 454.070 580.814 453.615 C 581.432 453.233 583.639 453.818 585.719 454.916 C 587.799 456.014 589.275 456.983 589.000 457.071 C 588.364 457.274 589.969 457.651 592.309 457.848 C 593.304 457.931 593.866 458.408 593.558 458.907 C 593.249 459.405 594.010 459.564 595.249 459.259 C 596.505 458.950 597.143 459.090 596.693 459.576 C 596.249 460.056 596.699 460.495 597.693 460.553 C 598.687 460.611 600.813 460.735 602.417 460.829 C 604.021 460.923 605.022 461.311 604.641 461.692 C 604.261 462.073 605.198 462.435 606.725 462.497 C 615.300 462.847 617.074 463.071 616.653 463.753 C 616.397 464.167 620.758 464.174 626.344 463.767 C 643.063 462.550 645.908 462.242 645.370 461.704 C 644.517 460.850 650.861 459.796 652.130 460.580 C 652.807 460.999 653.044 460.881 652.688 460.304 C 652.345 459.748 653.954 458.695 656.283 457.951 C 658.602 457.210 661.493 455.979 662.706 455.216 C 663.919 454.452 665.451 454.161 666.111 454.568 C 666.924 455.071 667.046 454.883 666.490 453.985 C 665.891 453.015 666.132 452.836 667.388 453.319 C 668.332 453.681 668.874 453.605 668.593 453.150 C 668.135 452.409 674.387 448.267 676.250 448.077 C 676.663 448.034 676.675 448.000 676.277 448.000 C 675.880 448.000 676.555 447.299 677.777 446.443 C 679.000 445.587 680.053 445.025 680.118 445.193 C 680.184 445.362 680.188 445.176 680.128 444.780 C 680.002 443.944 683.938 441.664 684.125 442.465 C 684.194 442.759 684.306 442.624 684.375 442.164 C 684.484 441.436 688.815 437.515 695.803 431.816 C 698.732 429.428 702.796 426.825 703.447 426.920 C 703.751 426.964 703.888 426.931 703.750 426.848 C 703.613 426.764 703.950 426.591 704.500 426.463 C 705.050 426.335 705.275 426.160 705.000 426.074 C 704.725 425.988 707.139 424.783 710.365 423.396 C 713.591 422.009 716.877 421.123 717.667 421.426 C 718.529 421.757 718.838 421.547 718.440 420.902 C 718.000 420.191 719.020 419.935 721.451 420.144 C 723.473 420.318 724.859 420.192 724.531 419.864 C 724.203 419.536 725.861 419.001 728.217 418.675 C 730.573 418.350 733.400 417.952 734.500 417.792 C 736.627 417.481 743.000 409.589 743.000 407.265 C 743.000 406.504 743.380 406.117 743.845 406.404 C 744.987 407.110 743.445 397.719 741.942 394.817 C 741.283 393.542 740.056 391.713 739.217 390.750 C 738.377 389.788 737.985 388.944 738.345 388.875 C 739.064 388.738 737.671 388.322 735.833 388.125 C 735.192 388.056 735.001 387.666 735.409 387.258 C 735.817 386.849 735.555 386.482 734.826 386.442 C 724.683 385.881 714.222 385.892 714.784 386.463 C 715.178 386.863 714.150 387.100 712.500 386.989 C 710.850 386.879 709.725 386.866 710.000 386.961 C 710.275 387.056 708.506 387.755 706.070 388.515 C 703.633 389.274 701.201 389.624 700.665 389.293 C 700.126 388.960 700.010 389.206 700.405 389.845 C 700.836 390.543 700.402 391.060 699.309 391.152 C 697.026 391.345 695.347 391.727 696.000 391.907 C 696.275 391.982 694.588 392.912 692.250 393.973 C 689.913 395.034 687.947 395.812 687.882 395.701 C 687.816 395.590 687.807 395.810 687.861 396.189 C 687.945 396.775 685.412 397.958 682.750 398.576 C 682.338 398.672 682.338 398.808 682.750 398.879 C 683.163 398.950 681.925 399.960 680.000 401.124 C 678.075 402.288 673.800 405.566 670.500 408.408 C 661.936 415.786 656.278 420.072 655.325 419.906 C 654.871 419.828 654.713 419.816 654.973 419.882 C 655.232 419.947 654.444 420.701 653.221 421.558 C 651.997 422.415 650.547 422.838 649.998 422.499 C 649.449 422.160 649.000 422.385 649.000 423.000 C 649.000 423.615 648.550 423.840 648.000 423.500 C 647.450 423.160 647.000 423.346 647.000 423.913 C 647.000 425.274 636.361 428.341 634.859 427.413 C 634.133 426.964 633.959 427.125 634.399 427.837 C 634.921 428.681 631.748 428.919 622.386 428.737 C 613.637 428.567 609.540 428.119 609.267 427.301 C 609.049 426.647 608.225 426.360 607.435 426.663 C 606.646 426.966 606.000 426.766 606.000 426.218 C 606.000 425.670 605.438 425.243 604.750 425.269 C 601.538 425.388 599.935 424.915 600.493 424.011 C 600.829 423.468 600.508 423.252 599.779 423.531 C 598.308 424.096 583.573 414.664 583.375 413.032 C 583.306 412.464 583.194 412.258 583.125 412.573 C 582.969 413.286 578.434 409.777 578.183 408.750 C 578.082 408.338 578.000 408.251 578.000 408.557 C 578.000 409.346 574.297 406.658 574.134 405.750 C 574.060 405.338 574.000 405.251 574.000 405.557 C 574.000 405.863 573.000 405.413 571.777 404.557 C 570.555 403.701 569.993 402.966 570.527 402.923 C 571.062 402.881 570.813 402.711 569.974 402.545 C 567.944 402.143 561.432 398.155 561.750 397.509 C 561.888 397.229 562.000 397.204 562.000 397.454 C 562.000 397.704 559.638 396.808 556.750 395.464 C 553.863 394.119 551.950 392.978 552.500 392.926 C 553.050 392.875 552.446 392.718 551.158 392.577 C 549.870 392.436 548.520 391.911 548.158 391.410 C 547.796 390.910 547.050 390.486 546.500 390.469 C 544.057 390.394 539.000 388.769 539.000 388.059 C 539.000 387.629 537.808 387.505 536.351 387.784 C 534.727 388.094 533.942 387.903 534.321 387.289 C 534.695 386.684 533.965 386.475 532.470 386.761 C 530.976 387.047 530.000 386.768 530.000 386.058 C 530.000 385.411 529.663 385.081 529.250 385.324 C 528.838 385.567 522.987 385.481 516.249 385.133 C 509.512 384.785 503.999 384.871 503.999 385.326 "/></g>
<g fill="#00657DFF">
<path d="M 508.001 295.071 C 508.000 295.608 503.010 296.111 495.000 296.382 C 493.075 296.447 491.239 296.852 490.921 297.282 C 490.602 297.713 488.702 298.212 486.697 298.392 C 484.693 298.572 483.378 299.074 483.776 299.507 C 484.174 299.941 483.487 300.046 482.249 299.741 C 481.010 299.436 480.249 299.595 480.558 300.093 C 480.866 300.592 480.304 301.069 479.309 301.152 C 478.314 301.236 476.903 301.352 476.174 301.410 C 475.445 301.468 475.183 301.849 475.591 302.258 C 475.999 302.666 475.471 303.069 474.417 303.152 C 471.905 303.352 470.439 303.705 470.750 304.035 C 470.888 304.181 470.452 304.345 469.782 304.400 C 469.112 304.455 467.454 305.529 466.097 306.786 C 464.740 308.043 463.015 308.836 462.263 308.547 C 461.511 308.259 461.171 308.468 461.507 309.011 C 461.843 309.555 461.641 310.056 461.059 310.125 C 460.477 310.194 459.513 310.306 458.917 310.375 C 458.321 310.444 458.171 310.838 458.583 311.250 C 458.996 311.663 458.808 312.056 458.167 312.125 C 456.287 312.326 454.940 312.740 455.723 312.875 C 456.120 312.944 455.445 313.701 454.223 314.557 C 453.000 315.413 451.944 315.863 451.875 315.557 C 451.806 315.251 451.694 315.398 451.625 315.883 C 451.402 317.457 441.684 324.923 440.672 324.297 C 440.132 323.964 439.996 324.185 440.370 324.789 C 440.945 325.720 433.235 331.195 430.750 331.621 C 430.338 331.692 430.338 331.824 430.750 331.915 C 431.163 332.006 430.252 332.757 428.726 333.584 C 427.201 334.412 425.444 334.774 424.822 334.390 C 424.189 333.999 423.965 334.134 424.313 334.697 C 425.031 335.859 417.451 338.397 415.979 337.487 C 415.441 337.154 415.000 337.411 415.000 338.058 C 415.000 338.772 414.020 339.046 412.500 338.755 C 411.125 338.492 410.000 338.720 410.000 339.261 C 410.000 340.788 393.377 339.581 386.269 337.538 C 382.595 336.482 380.299 335.325 380.674 334.719 C 381.039 334.127 380.819 333.994 380.155 334.404 C 379.002 335.117 367.008 329.328 367.158 328.132 C 367.201 327.784 367.184 327.638 367.118 327.807 C 366.915 328.333 363.276 325.541 363.134 324.750 C 363.060 324.338 363.000 324.265 363.000 324.589 C 363.000 324.913 361.636 324.030 359.968 322.627 C 358.301 321.224 356.951 319.834 356.968 319.538 C 356.986 319.242 357.000 319.246 357.000 319.546 C 357.000 319.846 354.910 318.496 352.356 316.546 C 349.802 314.596 348.115 312.966 348.606 312.923 C 349.098 312.881 348.738 312.700 347.807 312.520 C 345.865 312.146 341.189 309.063 342.277 308.875 C 342.675 308.806 342.663 308.689 342.250 308.613 C 339.914 308.188 335.029 305.637 335.551 305.115 C 335.890 304.777 335.792 304.463 335.333 304.418 C 332.809 304.172 328.994 302.672 329.529 302.137 C 329.872 301.795 329.555 301.468 328.826 301.410 C 328.097 301.352 326.686 301.236 325.691 301.152 C 324.598 301.060 324.164 300.543 324.595 299.845 C 325.009 299.176 324.873 298.961 324.271 299.333 C 323.700 299.686 321.043 299.300 318.366 298.476 C 310.495 296.051 296.051 295.405 292.363 297.312 C 288.334 299.396 283.000 305.538 283.000 308.094 C 283.000 309.207 282.589 309.864 282.088 309.554 C 279.983 308.254 284.205 321.605 286.732 324.242 C 288.185 325.759 288.952 327.034 288.437 327.077 C 286.876 327.204 291.082 328.133 299.000 329.410 C 303.125 330.075 305.825 330.899 305.000 331.242 C 304.175 331.584 305.032 331.600 306.905 331.276 C 309.557 330.818 310.132 330.978 309.501 331.998 C 308.963 332.868 309.081 333.068 309.851 332.592 C 311.272 331.714 318.091 334.044 317.395 335.170 C 317.121 335.614 317.591 335.711 318.440 335.385 C 319.348 335.036 320.236 335.450 320.596 336.391 C 320.934 337.269 321.597 337.749 322.070 337.457 C 323.363 336.658 331.065 342.085 330.329 343.277 C 329.978 343.844 330.132 344.036 330.672 343.703 C 331.751 343.036 341.267 350.462 340.794 351.601 C 340.632 351.991 341.288 352.425 342.251 352.566 C 343.996 352.822 350.092 357.441 350.032 358.462 C 350.014 358.758 350.000 358.750 350.000 358.443 C 350.000 358.137 351.326 358.670 352.946 359.627 C 354.566 360.584 355.667 361.729 355.394 362.172 C 355.120 362.615 355.668 362.681 356.612 362.319 C 357.769 361.875 358.095 362.038 357.612 362.819 C 357.130 363.599 357.456 363.762 358.612 363.319 C 359.868 362.836 360.109 363.015 359.510 363.985 C 358.985 364.833 359.079 365.069 359.771 364.642 C 361.250 363.728 366.088 366.048 365.314 367.301 C 364.971 367.855 365.129 368.038 365.665 367.707 C 366.201 367.376 369.308 367.957 372.570 368.999 C 375.831 370.040 378.050 370.951 377.500 371.023 C 376.950 371.095 377.850 371.270 379.500 371.412 C 385.634 371.941 393.050 373.283 392.558 373.775 C 392.095 374.238 396.631 374.187 414.731 373.524 C 418.158 373.398 420.671 373.004 420.315 372.648 C 419.958 372.292 420.979 371.923 422.583 371.829 C 424.188 371.735 426.313 371.611 427.307 371.553 C 428.301 371.495 428.843 371.176 428.511 370.844 C 428.179 370.512 429.106 369.939 430.571 369.571 C 432.037 369.204 433.461 369.128 433.737 369.404 C 434.013 369.679 434.918 369.225 435.748 368.395 C 436.578 367.564 437.838 367.107 438.546 367.379 C 439.255 367.651 440.101 367.180 440.426 366.333 C 440.769 365.440 441.665 365.041 442.560 365.385 C 443.444 365.724 443.843 365.554 443.493 364.989 C 443.157 364.445 443.471 363.931 444.191 363.848 C 446.071 363.629 447.569 363.250 447.084 363.115 C 446.856 363.052 449.270 361.177 452.451 358.950 C 455.631 356.722 458.518 355.184 458.866 355.533 C 459.215 355.882 459.500 355.724 459.500 355.183 C 459.500 353.593 477.124 339.959 478.267 340.665 C 478.872 341.039 479.010 340.825 478.595 340.155 C 478.203 339.520 478.359 338.944 478.941 338.875 C 480.866 338.648 482.012 338.253 481.250 338.078 C 480.838 337.984 482.653 336.786 485.285 335.416 C 487.917 334.046 490.574 333.237 491.190 333.617 C 491.919 334.068 492.026 333.851 491.498 332.997 C 490.894 332.020 491.238 331.829 492.845 332.249 C 494.228 332.611 494.766 332.431 494.345 331.749 C 493.924 331.067 494.462 330.888 495.845 331.249 C 497.032 331.560 497.768 331.434 497.482 330.971 C 496.837 329.927 505.454 328.545 506.929 329.456 C 507.518 329.820 508.000 329.641 508.000 329.059 C 508.000 328.477 509.688 328.004 511.750 328.009 C 517.759 328.023 525.989 329.209 525.505 329.992 C 525.261 330.387 526.239 330.486 527.679 330.211 C 529.649 329.834 530.098 330.032 529.494 331.010 C 528.960 331.874 529.084 332.066 529.865 331.583 C 531.383 330.645 538.195 332.875 537.457 334.069 C 537.149 334.569 537.668 334.681 538.612 334.319 C 539.868 333.836 540.109 334.015 539.510 334.985 C 538.990 335.826 539.079 336.069 539.755 335.651 C 541.264 334.719 544.119 335.999 543.340 337.259 C 542.961 337.872 543.171 338.012 543.844 337.597 C 544.946 336.915 549.769 339.522 549.250 340.519 C 549.113 340.784 549.000 340.759 549.000 340.465 C 549.000 340.170 549.913 340.418 551.028 341.015 C 552.143 341.612 552.749 342.597 552.373 343.205 C 551.998 343.812 552.132 344.036 552.672 343.703 C 553.212 343.369 555.869 344.930 558.577 347.171 C 565.726 353.087 575.221 359.745 581.248 363.068 C 584.136 364.661 586.275 366.024 586.000 366.097 C 585.324 366.278 587.071 366.661 589.417 366.848 C 590.471 366.931 590.999 367.334 590.591 367.742 C 590.183 368.151 590.445 368.532 591.174 368.590 C 591.903 368.648 593.539 368.764 594.809 368.848 C 596.277 368.945 596.858 369.420 596.405 370.155 C 595.986 370.832 596.128 371.039 596.748 370.656 C 597.330 370.296 600.437 370.639 603.653 371.418 C 606.869 372.196 608.825 372.898 608.000 372.977 C 607.175 373.056 611.900 373.320 618.500 373.564 C 625.100 373.807 631.850 374.230 633.500 374.502 C 635.698 374.865 636.099 374.734 635.000 374.014 C 633.514 373.040 634.356 372.902 644.275 372.497 C 645.802 372.435 646.702 372.011 646.275 371.555 C 645.849 371.099 646.724 370.948 648.220 371.219 C 649.716 371.490 650.732 371.375 650.478 370.965 C 650.060 370.288 655.592 368.682 658.826 368.542 C 659.556 368.511 659.781 368.080 659.326 367.583 C 658.846 367.059 659.255 366.953 660.302 367.329 C 661.523 367.768 661.873 367.604 661.388 366.819 C 660.905 366.038 661.231 365.875 662.388 366.319 C 663.334 366.682 663.850 366.566 663.537 366.061 C 663.037 365.251 665.687 363.822 668.500 363.386 C 669.050 363.301 669.275 363.177 669.000 363.112 C 668.222 362.926 675.286 358.781 676.745 358.567 C 677.459 358.462 677.809 358.142 677.523 357.857 C 676.948 357.281 684.910 351.304 686.500 351.117 C 687.050 351.053 687.500 350.627 687.500 350.172 C 687.500 349.029 698.903 339.837 700.637 339.583 C 701.410 339.469 701.733 339.067 701.355 338.688 C 700.976 338.310 701.192 337.944 701.833 337.875 C 703.800 337.664 705.040 337.259 704.250 337.085 C 703.838 336.994 704.748 336.243 706.274 335.416 C 707.799 334.588 709.556 334.226 710.178 334.610 C 710.922 335.070 711.029 334.856 710.490 333.985 C 709.891 333.015 710.132 332.836 711.388 333.319 C 712.536 333.759 712.869 333.598 712.396 332.831 C 711.914 332.051 712.377 331.865 713.845 332.249 C 715.032 332.560 715.768 332.434 715.482 331.971 C 714.837 330.927 723.284 329.579 726.009 330.292 C 727.106 330.579 727.751 330.405 727.442 329.907 C 727.134 329.408 728.056 329.000 729.491 329.000 C 730.925 329.000 733.427 328.313 735.050 327.474 C 736.672 326.635 738.056 326.185 738.125 326.474 C 738.194 326.763 738.307 326.663 738.377 326.250 C 738.446 325.838 739.586 323.980 740.911 322.122 C 744.392 317.238 744.740 310.668 741.815 305.059 C 738.277 298.271 735.643 296.855 725.184 296.115 C 719.959 295.745 716.410 295.854 716.731 296.373 C 717.035 296.866 715.870 297.061 714.142 296.808 C 712.414 296.554 711.000 296.771 711.000 297.290 C 711.000 297.809 710.099 297.998 708.999 297.710 C 707.898 297.422 707.220 297.547 707.492 297.987 C 708.148 299.048 703.217 300.252 701.800 299.376 C 701.129 298.962 700.973 299.147 701.405 299.845 C 701.797 300.480 701.654 301.000 701.088 301.000 C 700.521 301.000 697.457 302.211 694.279 303.691 C 691.100 305.171 688.050 306.469 687.500 306.576 C 686.950 306.682 686.717 306.821 686.982 306.885 C 687.844 307.091 679.853 312.196 678.152 312.526 C 677.243 312.703 676.849 312.881 677.276 312.923 C 678.147 313.009 666.257 323.348 661.250 326.858 C 659.463 328.111 658.000 328.881 658.000 328.568 C 658.000 328.256 657.084 328.916 655.964 330.036 C 654.843 331.157 653.424 331.762 652.809 331.382 C 652.169 330.987 651.968 331.140 652.340 331.741 C 653.119 333.001 650.264 334.281 648.755 333.349 C 648.157 332.979 647.981 333.161 648.355 333.765 C 649.173 335.089 642.525 337.443 640.865 336.417 C 640.165 335.984 639.957 336.122 640.350 336.757 C 641.101 337.972 633.692 339.546 632.037 338.523 C 631.467 338.170 631.000 338.359 631.000 338.941 C 631.000 339.586 628.243 340.000 623.941 340.000 C 619.544 340.000 617.112 339.627 617.493 339.011 C 617.845 338.442 617.438 338.278 616.533 338.626 C 613.220 339.897 595.436 333.722 596.668 331.728 C 597.021 331.158 596.896 330.946 596.392 331.258 C 595.888 331.569 594.356 331.205 592.987 330.448 C 591.619 329.690 590.838 328.999 591.250 328.910 C 592.015 328.747 590.849 328.350 588.941 328.125 C 588.359 328.056 588.203 327.480 588.595 326.845 C 588.988 326.211 588.876 325.958 588.347 326.285 C 587.429 326.853 573.841 316.737 573.948 315.565 C 573.977 315.254 574.000 315.251 574.000 315.557 C 574.000 315.863 573.000 315.413 571.777 314.557 C 570.555 313.701 569.880 312.944 570.277 312.875 C 571.013 312.748 569.809 312.351 568.000 312.125 C 567.450 312.056 567.053 311.663 567.118 311.250 C 567.184 310.838 567.184 310.624 567.118 310.776 C 566.812 311.489 561.000 307.822 561.000 306.915 C 561.000 306.347 560.586 306.138 560.081 306.450 C 559.575 306.763 558.562 306.452 557.831 305.759 C 557.099 305.067 555.825 304.397 555.000 304.272 C 552.899 303.952 536.389 298.150 537.000 297.946 C 537.275 297.854 536.488 297.861 535.250 297.961 C 534.013 298.061 533.000 297.751 533.000 297.272 C 533.000 296.793 531.364 296.593 529.364 296.826 C 527.156 297.084 525.964 296.868 526.330 296.275 C 526.705 295.669 525.055 295.480 521.966 295.777 C 518.575 296.103 517.000 295.884 517.000 295.087 C 517.000 294.327 515.429 294.021 512.501 294.210 C 510.026 294.369 508.001 294.757 508.001 295.071 "/></g>
<g fill="#00657DFF">
<path d="M 299.500 475.075 C 297.850 475.572 294.925 476.176 293.000 476.418 C 291.075 476.660 289.872 476.890 290.327 476.929 C 290.781 476.968 289.801 478.138 288.149 479.528 C 285.313 481.914 282.905 486.937 281.529 493.334 C 281.090 495.375 281.251 495.963 282.105 495.435 C 282.943 494.917 283.143 495.470 282.789 497.321 C 282.514 498.761 282.642 499.722 283.072 499.455 C 283.731 499.048 284.878 501.244 285.576 504.250 C 285.672 504.663 285.806 504.744 285.875 504.432 C 285.944 504.119 287.253 504.756 288.784 505.846 C 290.315 506.936 293.261 508.146 295.330 508.534 C 297.400 508.922 298.825 509.508 298.497 509.836 C 298.170 510.164 299.774 510.297 302.062 510.131 C 304.833 509.931 306.001 510.189 305.559 510.904 C 305.160 511.549 305.475 511.755 306.348 511.420 C 309.984 510.025 329.817 518.868 328.356 521.234 C 327.983 521.836 328.156 522.022 328.747 521.656 C 329.944 520.917 347.500 534.430 347.500 536.090 C 347.500 536.682 347.814 536.853 348.197 536.469 C 348.581 536.086 350.104 536.723 351.582 537.886 C 353.060 539.049 354.097 540.052 353.885 540.115 C 353.673 540.179 353.950 540.319 354.500 540.426 C 355.050 540.533 358.425 542.007 362.000 543.701 C 365.575 545.395 370.398 547.347 372.717 548.039 C 375.037 548.731 376.738 549.615 376.498 550.004 C 376.257 550.393 377.284 550.490 378.780 550.219 C 380.276 549.948 381.160 550.091 380.743 550.537 C 379.600 551.760 383.779 552.090 403.680 552.348 C 414.793 552.492 421.636 552.220 421.282 551.647 C 420.951 551.113 421.828 550.925 423.321 551.211 C 424.761 551.486 425.748 551.402 425.515 551.024 C 424.881 549.998 435.833 546.779 437.163 547.601 C 437.922 548.070 438.033 547.862 437.490 546.985 C 436.891 546.015 437.132 545.836 438.388 546.319 C 439.332 546.681 439.861 546.583 439.563 546.102 C 439.095 545.345 441.051 544.303 444.500 543.472 C 445.050 543.339 445.500 543.110 445.500 542.963 C 445.500 542.816 445.950 542.591 446.500 542.463 C 447.050 542.335 447.285 542.179 447.023 542.115 C 446.760 542.052 448.869 540.470 451.710 538.599 C 454.550 536.729 458.477 533.975 460.437 532.480 C 462.397 530.986 464.056 530.041 464.125 530.381 C 464.194 530.722 464.306 530.591 464.375 530.091 C 464.505 529.141 470.246 524.314 470.726 524.750 C 470.876 524.888 470.675 525.000 470.277 525.000 C 469.880 525.000 470.555 524.299 471.777 523.443 C 473.000 522.587 474.053 522.025 474.118 522.193 C 474.184 522.362 474.194 522.195 474.142 521.821 C 473.971 520.593 484.085 514.935 485.210 515.630 C 485.921 516.069 486.020 515.842 485.490 514.985 C 484.891 514.015 485.132 513.836 486.388 514.319 C 487.332 514.681 487.879 514.613 487.604 514.169 C 487.329 513.724 490.343 512.296 494.302 510.996 C 502.766 508.217 521.869 506.784 520.480 509.033 C 519.956 509.881 520.091 510.062 520.882 509.573 C 522.647 508.482 530.142 509.960 529.350 511.243 C 528.971 511.856 529.162 512.018 529.800 511.624 C 531.408 510.630 536.107 512.018 535.339 513.261 C 534.975 513.850 535.168 514.014 535.780 513.636 C 537.241 512.733 546.065 517.086 545.296 518.330 C 544.963 518.868 545.195 518.998 545.810 518.617 C 547.282 517.708 555.156 522.939 554.329 524.277 C 553.978 524.844 554.144 525.029 554.698 524.687 C 555.861 523.968 559.440 526.317 559.625 527.919 C 559.694 528.514 559.806 528.749 559.875 528.443 C 560.068 527.585 564.483 530.909 564.625 532.019 C 564.694 532.559 564.806 532.759 564.875 532.465 C 564.944 532.170 565.913 532.418 567.028 533.015 C 568.143 533.612 568.749 534.597 568.373 535.205 C 567.998 535.812 568.128 536.039 568.662 535.709 C 569.196 535.379 571.628 536.432 574.066 538.050 C 576.505 539.668 578.275 541.045 578.000 541.111 C 577.725 541.177 577.950 541.316 578.500 541.420 C 579.986 541.703 588.581 545.933 588.000 546.096 C 587.725 546.174 587.884 546.168 588.354 546.084 C 590.015 545.786 593.022 547.156 592.513 547.979 C 592.229 548.438 593.010 548.564 594.249 548.259 C 595.505 547.950 596.143 548.090 595.693 548.576 C 595.249 549.056 595.699 549.495 596.693 549.553 C 602.249 549.876 603.275 550.058 602.710 550.624 C 602.000 551.333 604.600 551.620 621.656 552.718 C 628.341 553.148 633.579 553.125 633.296 552.668 C 633.012 552.210 634.871 551.964 637.427 552.121 C 639.983 552.278 641.720 552.033 641.287 551.576 C 640.854 551.119 641.939 550.946 643.697 551.191 C 645.626 551.461 646.655 551.251 646.291 550.662 C 645.934 550.084 646.569 549.916 647.845 550.249 C 649.213 550.607 649.765 550.429 649.353 549.762 C 648.936 549.087 649.641 548.889 651.321 549.211 C 652.943 549.521 653.701 549.326 653.313 548.698 C 652.930 548.077 653.523 547.903 654.845 548.249 C 656.032 548.560 656.751 548.405 656.442 547.907 C 656.134 547.408 656.696 546.931 657.691 546.848 C 659.974 546.655 661.653 546.273 661.000 546.093 C 660.417 545.933 669.020 541.701 670.500 541.420 C 671.050 541.316 671.287 541.179 671.027 541.115 C 670.768 541.052 671.556 540.299 672.779 539.442 C 674.003 538.585 675.522 538.205 676.156 538.597 C 676.870 539.038 677.037 538.869 676.595 538.155 C 676.203 537.520 676.359 536.944 676.941 536.875 C 677.523 536.806 678.450 536.694 679.000 536.625 C 679.550 536.556 679.888 536.238 679.750 535.918 C 679.297 534.864 695.332 522.087 696.332 522.705 C 696.869 523.037 697.018 522.839 696.663 522.264 C 696.001 521.193 700.150 517.948 702.650 517.581 C 703.416 517.468 703.696 516.995 703.272 516.529 C 702.847 516.063 703.311 515.973 704.302 516.329 C 705.523 516.768 705.873 516.604 705.388 515.819 C 704.905 515.038 705.231 514.875 706.388 515.319 C 707.544 515.762 707.870 515.599 707.388 514.819 C 706.905 514.038 707.231 513.875 708.388 514.319 C 709.334 514.682 709.850 514.566 709.537 514.061 C 708.803 512.872 712.627 511.651 714.146 512.590 C 714.916 513.066 715.038 512.870 714.506 512.010 C 713.902 511.032 714.351 510.834 716.321 511.211 C 717.935 511.519 718.700 511.324 718.317 510.703 C 717.915 510.053 719.239 509.903 722.045 510.279 C 724.858 510.657 725.884 510.539 724.948 509.947 C 723.882 509.272 724.292 509.025 726.500 509.010 C 728.150 508.998 731.300 508.458 733.500 507.809 C 735.700 507.160 737.838 506.600 738.250 506.565 C 738.663 506.529 739.000 506.050 739.000 505.500 C 739.000 504.950 739.450 504.444 740.000 504.375 C 740.550 504.306 740.797 504.194 740.549 504.125 C 740.301 504.056 740.966 502.088 742.027 499.750 C 744.513 494.274 744.499 489.898 741.980 484.960 C 740.868 482.782 740.249 481.000 740.602 481.000 C 740.956 481.000 740.697 480.339 740.027 479.532 C 739.356 478.725 738.514 478.103 738.154 478.150 C 736.267 478.400 734.758 477.909 735.409 477.258 C 735.817 476.849 735.555 476.468 734.826 476.410 C 734.097 476.352 732.413 476.236 731.083 476.152 C 729.754 476.069 728.948 475.719 729.292 475.375 C 729.635 475.031 727.479 474.750 724.500 474.750 C 721.521 474.750 719.402 475.089 719.792 475.503 C 720.181 475.917 719.038 476.051 717.250 475.801 C 715.463 475.551 714.000 475.751 714.000 476.245 C 714.000 476.739 712.988 477.061 711.750 476.961 C 710.513 476.861 709.725 476.840 710.000 476.915 C 710.275 476.990 707.353 478.124 703.506 479.434 C 699.659 480.744 696.102 481.563 695.602 481.254 C 695.083 480.933 695.043 481.261 695.510 482.015 C 696.109 482.985 695.868 483.164 694.612 482.681 C 693.456 482.238 693.130 482.401 693.612 483.181 C 694.095 483.962 693.769 484.125 692.612 483.681 C 691.456 483.238 691.130 483.401 691.612 484.181 C 692.095 484.962 691.769 485.125 690.612 484.681 C 689.668 484.319 689.122 484.389 689.399 484.836 C 689.854 485.572 681.665 490.285 679.667 490.437 C 679.208 490.472 679.171 490.838 679.583 491.250 C 679.996 491.663 679.808 492.056 679.167 492.125 C 677.336 492.321 675.936 492.737 676.644 492.875 C 676.998 492.944 675.085 494.660 672.394 496.689 C 669.702 498.717 665.747 501.854 663.605 503.658 C 661.463 505.463 659.256 506.658 658.701 506.315 C 658.145 505.972 657.967 506.138 658.305 506.684 C 658.827 507.529 652.069 512.191 650.527 512.049 C 650.237 512.022 650.338 512.004 650.750 512.010 C 653.123 512.041 639.862 517.224 636.794 517.464 C 634.756 517.624 633.368 518.035 633.711 518.377 C 634.589 519.255 615.135 518.925 611.500 518.000 C 609.850 517.580 608.725 517.136 609.000 517.012 C 609.509 516.783 607.949 516.479 604.691 516.171 C 603.600 516.068 603.165 515.542 603.595 514.845 C 604.030 514.143 603.871 513.962 603.190 514.383 C 602.574 514.763 599.917 513.954 597.285 512.584 C 594.653 511.214 592.950 510.038 593.500 509.970 C 594.050 509.902 593.690 509.693 592.701 509.505 C 590.150 509.020 579.937 501.201 581.429 500.875 C 581.743 500.806 581.663 500.688 581.250 500.613 C 579.823 500.352 571.000 493.901 571.000 493.119 C 571.000 492.687 570.438 492.310 569.750 492.281 C 569.063 492.252 564.900 490.141 560.500 487.589 C 556.100 485.037 550.827 482.444 548.783 481.826 C 546.738 481.208 545.299 480.325 545.585 479.863 C 545.870 479.401 545.406 479.291 544.552 479.618 C 543.696 479.947 543.000 479.691 543.000 479.048 C 543.000 478.407 542.596 478.132 542.103 478.437 C 540.896 479.182 534.918 477.942 535.463 477.059 C 535.700 476.676 534.456 476.563 532.697 476.809 C 530.939 477.054 529.789 476.946 530.143 476.568 C 530.497 476.190 527.572 475.710 523.643 475.501 C 509.183 474.734 502.045 474.712 502.763 475.437 C 503.169 475.847 501.565 476.044 499.201 475.875 C 496.836 475.706 495.261 475.933 495.701 476.380 C 496.140 476.826 495.150 477.100 493.500 476.989 C 491.850 476.879 490.725 476.860 491.000 476.948 C 491.275 477.035 487.907 478.170 483.516 479.468 C 479.125 480.766 475.118 481.573 474.612 481.260 C 474.083 480.933 474.039 481.254 474.510 482.015 C 475.109 482.985 474.868 483.164 473.612 482.681 C 472.456 482.238 472.130 482.401 472.612 483.181 C 473.095 483.962 472.769 484.125 471.612 483.681 C 470.456 483.238 470.130 483.401 470.612 484.181 C 471.095 484.962 470.769 485.125 469.612 484.681 C 468.456 484.238 468.130 484.401 468.612 485.181 C 469.107 485.982 468.746 486.117 467.445 485.617 C 466.409 485.220 465.845 485.178 466.191 485.524 C 466.538 485.871 462.587 489.026 457.411 492.535 C 452.235 496.044 447.947 498.822 447.882 498.708 C 447.816 498.594 447.808 498.813 447.863 499.195 C 447.966 499.907 441.702 504.691 441.250 504.246 C 441.113 504.111 441.312 504.000 441.694 504.000 C 442.076 504.000 440.884 505.110 439.045 506.467 C 437.206 507.824 435.249 508.654 434.696 508.312 C 434.143 507.971 433.965 508.134 434.300 508.676 C 435.107 509.982 423.763 515.566 416.416 517.480 C 406.756 519.996 385.000 518.873 385.000 515.858 C 385.000 515.321 384.602 515.128 384.115 515.429 C 382.691 516.309 376.932 513.919 377.656 512.748 C 378.021 512.156 377.836 511.983 377.235 512.355 C 376.644 512.720 375.552 512.452 374.807 511.759 C 374.062 511.067 372.831 510.364 372.072 510.199 C 370.300 509.812 367.309 507.722 367.134 506.750 C 367.060 506.338 367.000 506.253 367.000 506.562 C 367.000 506.871 364.925 505.634 362.388 503.812 C 359.851 501.990 358.276 500.444 358.888 500.375 C 359.967 500.254 359.055 499.711 357.949 499.815 C 357.274 499.879 348.560 493.047 349.109 492.885 C 349.324 492.821 349.050 492.709 348.500 492.635 C 347.950 492.561 347.400 492.078 347.277 491.563 C 347.155 491.047 346.468 490.539 345.751 490.434 C 344.288 490.219 337.220 486.074 338.000 485.888 C 338.275 485.823 338.050 485.665 337.500 485.537 C 336.950 485.409 336.500 485.184 336.500 485.037 C 336.500 484.890 336.050 484.665 335.500 484.537 C 334.950 484.409 334.725 484.199 335.000 484.069 C 335.275 483.939 334.600 483.683 333.500 483.498 C 331.137 483.102 318.273 478.176 319.000 477.946 C 319.706 477.722 317.080 477.372 313.191 477.171 C 311.371 477.077 310.110 476.631 310.388 476.181 C 310.667 475.730 309.621 475.549 308.066 475.777 C 306.510 476.005 304.932 475.699 304.559 475.096 C 303.786 473.845 303.587 473.845 299.500 475.075 "/></g>
<g fill="#00657DFF">
<path d="M 508.615 596.187 C 508.892 596.634 508.681 597.000 508.147 597.000 C 507.613 597.000 504.349 600.362 500.893 604.471 C 497.437 608.580 494.387 611.721 494.116 611.450 C 493.845 611.179 493.537 611.550 493.430 612.274 C 493.185 613.945 483.027 627.596 482.923 626.393 C 482.881 625.902 482.709 626.200 482.541 627.055 C 482.214 628.714 473.079 643.773 472.885 642.974 C 472.821 642.713 472.680 642.950 472.571 643.500 C 472.051 646.130 467.642 654.975 467.114 654.448 C 466.785 654.118 466.499 654.445 466.479 655.174 C 466.398 658.174 464.780 662.982 464.012 662.507 C 463.558 662.227 463.436 663.010 463.741 664.249 C 464.046 665.487 463.941 666.175 463.508 665.777 C 463.075 665.380 462.535 670.105 462.308 676.277 C 461.964 685.645 462.246 688.657 464.012 694.500 C 465.177 698.350 466.288 702.400 466.481 703.500 C 466.675 704.600 466.939 705.275 467.069 705.000 C 467.199 704.725 467.409 704.950 467.537 705.500 C 467.665 706.050 467.821 706.327 467.885 706.115 C 468.132 705.291 472.203 711.146 472.516 712.775 C 472.698 713.724 472.881 714.067 472.923 713.538 C 472.966 713.008 475.138 714.668 477.750 717.227 C 480.363 719.785 485.133 723.256 488.352 724.939 C 491.570 726.623 494.045 728.048 493.852 728.106 C 493.389 728.246 495.916 728.615 498.809 728.829 C 500.079 728.923 500.895 729.361 500.622 729.802 C 500.349 730.244 505.610 730.447 512.313 730.254 C 527.732 729.810 529.000 729.688 529.000 728.643 C 529.000 728.172 529.774 728.083 530.720 728.446 C 531.665 728.809 532.153 728.820 531.804 728.471 C 531.455 728.122 534.056 726.331 537.585 724.492 C 541.113 722.653 544.056 721.340 544.125 721.574 C 544.194 721.808 544.336 721.663 544.441 721.250 C 544.648 720.436 554.926 709.848 555.115 710.253 C 555.179 710.389 555.291 709.826 555.365 709.003 C 555.439 708.179 556.100 707.504 556.833 707.503 C 557.567 707.501 557.898 707.231 557.569 706.902 C 557.240 706.574 558.072 703.874 559.417 700.902 C 560.762 697.931 562.173 693.792 562.551 691.703 C 562.930 689.615 563.480 688.147 563.773 688.440 C 564.067 688.733 564.186 685.717 564.038 681.737 C 563.579 669.358 563.269 666.064 562.624 666.710 C 562.281 667.053 562.000 666.572 562.000 665.642 C 562.000 664.711 561.112 661.424 560.027 658.336 C 558.942 655.248 558.336 652.265 558.681 651.707 C 559.027 651.148 558.822 650.992 558.227 651.360 C 557.277 651.947 555.853 649.511 555.386 646.500 C 555.301 645.950 555.178 645.725 555.115 646.000 C 554.940 646.752 544.841 629.696 544.592 628.228 C 544.474 627.529 544.067 627.267 543.688 627.645 C 543.310 628.024 542.944 627.808 542.875 627.167 C 542.806 626.525 542.694 625.550 542.625 625.000 C 542.556 624.450 542.050 623.912 541.500 623.805 C 540.950 623.698 539.196 621.785 537.603 619.555 C 536.009 617.325 532.409 612.646 529.603 609.157 C 526.796 605.668 524.500 602.368 524.500 601.824 C 524.500 601.279 524.239 601.094 523.921 601.413 C 523.602 601.731 522.286 600.869 520.996 599.496 C 519.707 598.123 519.067 596.969 519.576 596.931 C 520.084 596.893 519.150 596.664 517.500 596.421 C 511.133 595.484 508.132 595.405 508.615 596.187 "/></g>
<g fill="#00657DFF">
<path d="M 665.500 607.379 C 659.467 608.902 654.828 611.230 649.540 615.387 C 647.363 617.099 645.450 618.388 645.290 618.250 C 645.131 618.113 644.956 618.338 644.901 618.750 C 644.631 620.807 642.771 622.977 641.795 622.373 C 641.151 621.975 640.973 622.147 641.367 622.785 C 641.739 623.387 641.136 625.369 640.026 627.190 C 638.916 629.010 637.954 630.275 637.888 630.000 C 637.707 629.238 637.323 631.226 637.152 633.809 C 637.069 635.079 636.631 635.890 636.181 635.612 C 635.730 635.333 635.566 636.496 635.815 638.195 C 636.076 639.970 635.870 641.038 635.332 640.705 C 634.756 640.349 634.699 642.890 635.185 647.313 C 635.619 651.266 635.769 655.063 635.518 655.750 C 635.268 656.438 635.464 657.000 635.954 657.000 C 636.735 657.000 639.211 662.738 639.621 665.500 C 639.702 666.050 639.821 666.323 639.885 666.106 C 640.037 665.584 647.066 674.805 647.029 675.478 C 647.013 675.765 647.000 675.768 647.000 675.483 C 647.000 675.199 649.300 676.549 652.112 678.483 C 654.924 680.418 657.061 682.052 656.862 682.115 C 656.348 682.279 658.180 682.668 660.309 682.848 C 661.304 682.931 661.888 683.373 661.606 683.829 C 661.324 684.285 666.922 684.681 674.047 684.710 C 681.731 684.741 687.000 684.370 687.000 683.798 C 687.000 683.267 687.553 683.018 688.228 683.243 C 688.904 683.468 690.351 682.819 691.443 681.802 C 692.536 680.784 694.107 680.211 694.934 680.528 C 695.762 680.846 696.167 680.834 695.834 680.501 C 695.502 680.168 697.540 677.707 700.365 675.032 C 703.189 672.356 706.850 667.542 708.500 664.333 C 710.150 661.125 711.772 658.372 712.105 658.215 C 712.437 658.058 712.488 656.708 712.218 655.215 C 711.948 653.722 712.058 652.808 712.463 653.183 C 712.868 653.559 713.200 650.552 713.200 646.500 C 713.200 642.448 712.930 639.403 712.600 639.733 C 712.270 640.063 711.923 639.021 711.829 637.417 C 711.735 635.813 711.611 633.687 711.553 632.693 C 711.495 631.699 711.122 631.211 710.724 631.609 C 710.326 632.008 710.000 631.671 710.000 630.862 C 710.000 630.053 708.660 627.278 707.022 624.696 C 705.384 622.113 704.259 619.944 704.522 619.875 C 704.785 619.806 704.534 619.694 703.964 619.625 C 703.393 619.556 702.606 619.043 702.214 618.484 C 701.821 617.925 699.925 616.172 698.000 614.588 C 696.075 613.004 694.613 611.549 694.750 611.354 C 694.888 611.159 695.000 611.203 695.000 611.451 C 695.000 611.699 693.088 611.034 690.750 609.973 C 688.413 608.912 686.725 607.986 687.000 607.916 C 687.275 607.845 686.825 607.687 686.000 607.565 C 685.175 607.442 684.725 607.243 685.000 607.122 C 687.186 606.161 669.397 606.395 665.500 607.379 "/></g>
<g fill="#00657DFF">
<path d="M 344.304 601.000 C 333.840 612.409 322.443 630.876 319.618 641.000 C 317.982 646.860 317.124 660.507 318.470 659.250 C 318.912 658.838 319.052 659.724 318.781 661.220 C 318.510 662.716 318.642 663.722 319.072 663.455 C 319.882 662.955 321.147 665.998 321.584 669.500 C 321.721 670.600 321.871 671.082 321.917 670.572 C 321.963 670.061 323.238 671.300 324.750 673.324 C 327.792 677.394 336.511 684.000 338.843 684.000 C 339.663 684.000 340.008 684.326 339.609 684.724 C 339.211 685.122 339.699 685.495 340.693 685.553 C 341.687 685.611 344.300 685.742 346.500 685.844 C 349.236 685.972 350.061 686.308 349.111 686.910 C 348.171 687.505 348.731 687.710 350.844 687.544 C 352.560 687.409 353.635 686.965 353.232 686.558 C 352.830 686.151 354.435 685.956 356.799 686.125 C 359.164 686.294 360.776 686.110 360.383 685.716 C 359.989 685.322 360.529 684.923 361.583 684.829 C 364.500 684.569 366.558 684.226 366.000 684.094 C 365.486 683.973 373.673 679.122 374.525 679.044 C 374.786 679.020 374.687 679.000 374.304 679.000 C 373.921 679.000 374.978 677.538 376.653 675.750 C 378.327 673.963 380.441 671.387 381.349 670.027 C 382.257 668.668 383.052 667.768 383.115 668.027 C 383.179 668.287 383.310 668.050 383.407 667.500 C 383.503 666.950 384.179 664.475 384.907 662.000 C 387.132 654.442 385.877 642.824 381.935 634.500 C 380.112 630.650 378.590 626.903 378.553 626.174 C 378.516 625.445 378.151 625.183 377.742 625.591 C 377.334 625.999 376.944 625.808 376.875 625.167 C 376.671 623.265 376.260 621.944 376.122 622.750 C 376.051 623.163 374.219 620.831 372.050 617.568 C 369.881 614.306 368.377 611.199 368.708 610.664 C 369.038 610.129 368.866 609.965 368.325 610.299 C 367.783 610.634 365.582 608.566 363.434 605.704 C 361.285 602.842 359.071 600.169 358.513 599.765 C 357.956 599.361 357.838 598.967 358.250 598.890 C 359.050 598.741 357.758 598.331 355.833 598.125 C 355.192 598.056 354.955 597.712 355.307 597.360 C 355.659 597.008 354.256 596.671 352.189 596.610 C 348.950 596.515 347.862 597.121 344.304 601.000 "/></g>
<g fill="#043342FF">
<path d="M 717.500 475.039 C 715.523 475.567 716.551 475.662 720.513 475.318 C 731.141 474.394 738.225 477.600 742.028 485.055 C 744.604 490.104 744.521 494.557 741.750 499.980 C 738.546 506.250 735.892 507.710 724.500 509.473 C 711.277 511.519 703.477 515.422 689.500 526.990 C 675.898 538.247 666.200 544.014 654.377 547.877 C 632.870 554.905 612.598 554.584 591.675 546.887 C 581.887 543.286 572.798 537.725 560.000 527.507 C 537.085 509.211 514.818 503.842 493.155 511.387 C 483.950 514.593 478.900 517.697 465.309 528.502 C 451.500 539.481 443.083 544.321 430.000 548.806 C 419.631 552.361 419.282 552.408 402.000 552.572 C 388.888 552.697 385.975 552.930 390.383 553.501 C 399.782 554.719 418.519 553.446 427.000 551.013 C 438.209 547.797 452.191 540.380 461.377 532.777 C 465.845 529.080 473.231 523.514 477.790 520.408 C 496.586 507.607 518.998 505.618 538.819 514.992 C 546.173 518.470 550.859 521.616 564.426 532.188 C 591.785 553.505 622.591 559.240 654.290 548.915 C 665.567 545.242 675.663 539.589 685.809 531.267 C 705.406 515.192 710.089 512.688 724.643 510.504 C 729.807 509.728 735.283 508.355 736.812 507.452 C 743.195 503.682 746.523 494.146 744.061 486.685 C 742.576 482.184 736.286 476.451 731.321 475.072 C 726.996 473.871 721.914 473.859 717.500 475.039 "/></g>
<g fill="#043342FF">
<path d="M 509.500 595.162 C 501.104 599.785 479.167 628.969 469.604 648.238 C 463.293 660.955 460.955 669.545 460.962 680.000 C 460.972 694.954 465.544 706.277 475.792 716.728 C 486.321 727.466 502.743 733.236 517.614 731.423 L 524.500 730.583 514.000 730.510 C 496.796 730.390 485.756 725.904 475.558 714.889 C 465.345 703.858 461.426 692.643 462.315 677.000 C 462.914 666.465 464.764 660.219 470.938 647.884 C 479.683 630.412 503.837 598.271 509.726 596.269 C 514.643 594.598 518.432 596.507 525.201 604.066 C 542.004 622.831 559.214 651.773 562.443 666.697 C 567.826 691.579 557.297 714.806 535.789 725.497 C 531.780 727.490 529.625 728.810 531.000 728.430 C 541.370 725.570 554.646 713.821 559.734 703.000 C 572.037 676.833 562.737 647.811 528.922 606.854 C 519.354 595.265 514.557 592.377 509.500 595.162 "/></g>
<g fill="#043342FF">
<path d="M 714.500 295.813 C 712.850 296.096 716.529 296.366 722.674 296.413 C 735.607 296.514 737.901 297.550 741.815 305.059 C 744.868 310.914 744.410 317.463 740.599 322.459 C 736.947 327.247 733.995 328.566 724.000 329.875 C 712.386 331.396 704.523 335.515 688.500 348.472 C 665.152 367.353 649.773 373.396 625.000 373.424 C 599.102 373.453 583.514 367.209 557.838 346.521 C 542.312 334.011 531.433 329.332 516.032 328.539 L 507.500 328.100 515.500 329.010 C 532.501 330.944 541.931 335.091 557.384 347.431 C 570.479 357.887 574.861 360.909 582.519 364.765 C 611.254 379.234 645.630 378.045 672.382 361.657 C 675.066 360.012 683.123 353.989 690.285 348.272 C 706.566 335.277 710.611 333.208 724.195 330.924 C 736.408 328.871 739.880 326.945 743.003 320.494 C 745.210 315.934 745.561 310.619 743.939 306.315 C 742.360 302.128 737.065 297.113 733.044 295.996 C 729.417 294.988 719.868 294.894 714.500 295.813 "/></g>
<g fill="#043342FF">
<path d="M 345.308 598.612 C 341.863 600.843 329.391 618.039 324.365 627.486 C 316.970 641.388 315.271 651.815 318.584 662.972 C 327.547 693.154 369.423 696.180 383.517 667.663 C 386.559 661.508 387.115 659.342 387.165 653.451 C 387.233 645.484 385.873 639.669 382.270 632.517 C 378.724 625.479 367.773 609.177 363.421 604.456 C 360.057 600.807 359.977 600.772 362.391 604.000 C 369.407 613.379 380.182 630.138 382.645 635.500 C 385.080 640.803 385.406 642.720 385.450 652.000 C 385.497 661.782 385.300 662.861 382.578 667.774 C 376.057 679.544 364.803 686.208 351.500 686.176 C 343.424 686.156 337.729 684.366 331.488 679.884 C 320.234 671.802 315.295 655.644 319.583 640.932 C 322.477 630.999 333.410 613.154 343.833 601.347 C 346.083 598.798 346.653 597.741 345.308 598.612 "/></g>
<g fill="#043342FF">
<path d="M 504.000 418.691 C 499.347 419.470 491.523 422.264 486.648 424.888 C 483.979 426.325 483.304 426.868 485.148 426.095 C 502.108 418.988 512.405 417.558 525.586 420.481 C 537.951 423.224 545.609 427.538 563.145 441.641 C 590.678 463.783 621.013 470.133 652.344 460.312 C 656.658 458.960 659.980 457.647 659.727 457.394 C 659.474 457.140 655.732 458.087 651.413 459.497 C 639.624 463.345 627.022 464.663 615.750 463.225 C 593.109 460.337 581.043 454.581 555.500 434.481 C 546.725 427.577 535.461 421.714 526.936 419.616 C 520.881 418.125 510.000 417.686 504.000 418.691 "/></g>
<g fill="#043342FF">
<path d="M 495.500 475.545 C 478.033 478.803 463.803 485.708 447.028 499.064 C 427.779 514.390 416.802 518.680 399.506 517.637 C 394.003 517.305 388.375 516.913 387.000 516.766 C 385.625 516.620 386.885 517.063 389.799 517.750 C 397.030 519.456 409.347 519.321 416.498 517.459 C 424.600 515.348 433.110 510.885 441.859 504.158 C 463.589 487.450 472.744 482.298 487.936 478.229 C 496.157 476.026 499.606 475.664 512.500 475.644 C 523.360 475.627 529.404 476.092 534.397 477.330 C 538.190 478.270 541.485 478.849 541.717 478.616 C 541.950 478.383 538.847 477.421 534.820 476.479 C 524.740 474.120 505.580 473.665 495.500 475.545 "/></g>
<g fill="#043342FF">
<path d="M 666.045 606.092 C 655.026 608.252 644.901 616.081 639.135 626.898 C 635.281 634.128 633.346 644.612 634.594 651.500 L 635.500 656.500 635.175 650.547 C 633.974 628.555 647.498 610.722 668.280 606.892 C 673.310 605.966 676.168 605.957 680.660 606.855 C 701.330 610.987 714.201 628.295 712.744 650.000 C 712.339 656.037 712.434 656.817 713.230 654.000 C 714.636 649.029 713.547 637.487 711.045 630.826 C 704.292 612.851 685.174 602.343 666.045 606.092 "/></g>
<g fill="#043342FF">
<path d="M 705.000 477.891 C 693.077 481.757 677.035 491.252 663.500 502.453 C 651.012 512.788 640.532 517.183 626.933 517.791 C 610.275 518.535 599.243 514.624 584.000 502.570 C 579.325 498.873 574.457 495.320 573.181 494.674 C 571.906 494.028 572.397 494.625 574.273 496.000 C 576.149 497.375 579.806 500.300 582.401 502.500 C 588.680 507.824 598.050 513.491 604.914 516.114 C 612.045 518.840 627.811 519.807 635.844 518.013 C 643.592 516.281 654.801 510.644 661.951 504.882 C 680.308 490.090 693.098 482.562 707.000 478.369 C 711.125 477.125 713.600 476.107 712.500 476.107 C 711.400 476.107 708.025 476.910 705.000 477.891 "/></g>
<g fill="#043342FF">
<path d="M 721.500 384.635 C 701.978 387.087 685.081 394.872 667.504 409.515 C 663.107 413.178 657.370 417.561 654.755 419.255 C 652.141 420.949 650.196 422.529 650.433 422.766 C 651.150 423.484 661.037 416.530 669.000 409.708 C 686.989 394.295 706.344 386.048 724.602 386.015 C 734.344 385.997 738.213 388.019 741.815 395.008 C 744.914 401.024 744.336 406.641 739.974 412.868 C 737.568 416.302 737.318 416.983 739.006 415.500 C 740.258 414.400 742.109 411.700 743.119 409.500 C 749.388 395.849 737.853 382.582 721.500 384.635 "/></g>
<g fill="#043342FF">
<path d="M 282.437 497.789 C 283.601 505.032 289.539 509.102 301.571 510.904 C 315.128 512.934 323.763 517.318 339.980 530.404 C 354.265 541.930 368.396 549.168 381.000 551.414 C 382.925 551.757 379.788 550.441 374.029 548.489 C 359.161 543.452 353.576 540.091 334.500 524.703 C 323.165 515.560 315.891 512.475 297.315 508.933 C 289.950 507.529 285.553 504.231 283.407 498.500 C 282.005 494.760 281.943 494.713 282.437 497.789 "/></g>
<g fill="#043342FF">
<path d="M 323.974 338.802 C 325.335 339.736 328.260 341.935 330.474 343.689 C 344.896 355.115 353.374 361.168 359.462 364.385 C 375.369 372.793 397.442 376.760 414.610 374.299 C 417.869 373.832 414.330 373.560 404.000 373.485 C 390.647 373.387 387.155 373.008 378.790 370.753 C 365.664 367.215 353.678 360.796 340.500 350.251 C 327.777 340.069 323.527 336.979 322.346 337.052 C 321.881 337.081 322.613 337.869 323.974 338.802 "/></g>
<g fill="#043342FF">
<path d="M 321.159 299.425 C 334.245 303.961 344.841 310.305 360.348 322.890 C 365.215 326.839 371.900 331.435 375.205 333.103 C 383.568 337.325 394.868 340.030 403.410 339.855 L 410.500 339.709 401.000 338.946 C 384.768 337.642 372.939 332.589 359.459 321.202 C 350.742 313.839 339.261 306.130 332.000 302.764 C 325.704 299.846 317.502 296.972 315.715 297.059 C 315.047 297.091 317.496 298.156 321.159 299.425 "/></g>
<g fill="#043342FF">
<path d="M 291.500 386.412 C 287.607 388.142 284.490 391.583 282.499 396.348 C 279.485 403.561 282.794 413.223 289.649 417.227 C 292.306 418.779 305.625 421.754 312.500 422.332 C 316.390 422.659 306.396 420.147 299.131 418.971 C 289.637 417.435 284.692 413.453 283.108 406.067 C 281.353 397.886 284.223 391.457 291.223 387.886 C 294.896 386.012 296.479 385.821 303.959 386.347 C 308.656 386.677 313.850 387.167 315.500 387.435 C 317.150 387.704 316.250 387.309 313.500 386.558 C 307.023 384.789 295.326 384.711 291.500 386.412 "/></g>
<g fill="#043342FF">
<path d="M 321.250 426.766 C 324.962 428.819 333.062 434.541 339.250 439.479 C 354.938 452.001 369.901 460.217 379.474 461.566 C 381.138 461.801 379.906 461.139 376.736 460.095 C 366.761 456.810 354.823 450.278 345.500 443.004 C 340.550 439.141 334.475 434.425 332.000 432.523 C 327.392 428.981 316.902 422.988 315.360 423.016 C 314.887 423.024 317.537 424.712 321.250 426.766 "/></g>
<g fill="#043342FF">
<path d="M 495.972 330.877 C 487.641 333.543 479.323 338.324 469.946 345.835 C 459.411 354.274 449.836 361.041 444.066 364.128 C 441.153 365.687 440.639 366.188 442.566 365.589 C 446.986 364.216 457.225 357.338 469.500 347.496 C 481.519 337.859 490.962 332.799 501.000 330.615 C 504.938 329.758 506.317 329.182 504.500 329.154 C 502.850 329.129 499.012 329.904 495.972 330.877 "/></g>
<g fill="#043342FF">
<path d="M 287.146 299.750 C 282.658 304.024 280.460 310.306 281.504 315.875 C 283.274 325.306 288.499 329.404 300.679 330.913 C 305.177 331.470 311.688 333.076 315.148 334.482 C 318.607 335.888 320.958 336.558 320.372 335.972 C 318.426 334.026 305.601 330.211 298.653 329.510 C 292.748 328.915 291.283 328.347 287.995 325.377 C 278.952 317.207 281.155 303.409 292.500 297.162 C 294.189 296.232 294.234 296.056 292.792 296.030 C 291.853 296.014 289.312 297.688 287.146 299.750 "/></g>
<g fill="#043342FF">
<path d="M 561.000 307.370 C 561.000 307.612 562.936 308.944 565.301 310.331 C 567.667 311.717 574.257 316.499 579.946 320.958 C 585.635 325.416 593.083 330.626 596.496 332.535 C 604.413 336.962 616.377 340.043 624.910 339.853 L 631.500 339.705 623.000 339.009 C 607.735 337.757 596.340 333.092 584.337 323.179 C 575.031 315.492 561.000 305.988 561.000 307.370 "/></g>
<g fill="#043342FF">
<path d="M 636.521 659.433 C 638.206 667.553 647.276 677.707 657.000 682.359 C 662.130 684.814 665.139 685.548 671.273 685.842 C 675.548 686.046 680.723 685.890 682.773 685.493 C 685.304 685.004 682.810 684.729 675.000 684.636 C 664.771 684.515 662.866 684.203 657.764 681.812 C 650.304 678.316 642.613 670.540 638.883 662.724 C 637.197 659.190 636.176 657.767 636.521 659.433 "/></g>
<g fill="#043342FF">
<path d="M 469.972 394.073 C 461.190 398.320 452.340 404.214 444.303 411.170 C 437.533 417.030 430.120 421.764 423.366 424.541 C 420.140 425.867 418.227 426.963 419.116 426.976 C 422.417 427.025 434.780 419.886 443.467 412.914 C 455.978 402.876 462.438 398.617 472.124 394.026 C 476.731 391.842 480.026 390.043 479.447 390.028 C 478.868 390.012 474.604 391.833 469.972 394.073 "/></g>
<g fill="#043342FF">
<path d="M 701.627 299.520 C 693.600 302.376 684.566 307.291 677.446 312.677 C 669.250 318.875 657.909 328.607 660.496 327.220 C 661.810 326.516 666.238 323.090 670.337 319.607 C 680.710 310.791 691.296 304.436 702.203 300.475 C 707.317 298.619 710.825 297.094 710.000 297.087 C 709.175 297.080 705.407 298.175 701.627 299.520 "/></g>
<g fill="#043342FF">
<path d="M 322.000 479.430 C 334.986 483.987 342.555 488.495 361.622 503.029 C 367.055 507.171 371.725 510.488 372.000 510.401 C 372.536 510.231 360.110 500.575 349.179 492.668 C 339.359 485.565 320.992 476.775 316.593 477.074 C 315.992 477.115 318.425 478.175 322.000 479.430 "/></g>
<g fill="#043342FF">
<path d="M 556.078 395.296 C 564.021 399.238 573.122 405.372 585.500 415.124 C 591.332 419.719 599.433 424.494 603.000 425.439 C 604.375 425.803 602.800 424.742 599.500 423.081 C 596.200 421.420 587.200 415.316 579.500 409.517 C 567.416 400.417 551.546 390.958 548.463 391.019 C 547.933 391.029 551.360 392.954 556.078 395.296 "/></g>
<g fill="#043342FF">
<path d="M 701.584 427.637 C 697.362 430.506 695.558 431.906 690.093 436.559 C 682.220 443.263 674.170 449.005 667.702 452.531 C 663.963 454.569 661.122 456.456 661.390 456.723 C 662.397 457.730 677.940 447.544 689.500 438.301 C 696.100 433.024 702.850 427.874 704.500 426.857 C 706.150 425.840 707.042 425.006 706.482 425.004 C 705.922 425.002 703.718 426.187 701.584 427.637 "/></g>
<g fill="#043342FF">
<path d="M 336.414 395.197 C 337.467 395.914 342.192 399.109 346.914 402.297 C 351.636 405.485 358.875 410.797 363.000 414.101 C 369.800 419.549 378.722 425.028 380.717 424.982 C 381.148 424.972 379.118 423.651 376.206 422.045 C 370.947 419.146 369.484 418.097 354.379 406.398 C 350.045 403.041 343.800 398.855 340.500 397.094 C 337.200 395.334 335.361 394.480 336.414 395.197 "/></g>
<g fill="#043342FF">
<path d="M 460.912 309.125 C 453.822 313.697 433.342 329.866 435.897 328.875 C 436.783 328.531 441.676 324.847 446.771 320.687 C 451.865 316.528 458.752 311.473 462.075 309.454 C 465.398 307.436 467.939 305.606 467.721 305.387 C 467.503 305.169 464.439 306.851 460.912 309.125 "/></g>
<g fill="#043342FF">
<path d="M 709.065 663.390 C 706.079 669.590 699.994 676.350 694.000 680.127 C 691.525 681.686 689.989 682.971 690.587 682.981 C 692.448 683.014 702.534 675.301 705.187 671.816 C 708.249 667.794 712.234 660.138 711.808 659.092 C 711.639 658.675 710.404 660.609 709.065 663.390 "/></g>
<g fill="#043342FF">
<path d="M 471.062 434.744 C 466.442 438.460 460.672 442.997 458.240 444.826 C 455.808 446.655 454.035 448.368 454.300 448.634 C 454.566 448.899 459.444 445.344 465.141 440.734 C 470.839 436.124 476.799 431.506 478.387 430.471 C 479.974 429.437 480.866 428.455 480.368 428.289 C 479.870 428.123 475.682 431.028 471.062 434.744 "/></g>
<g fill="#043342FF">
<path d="M 294.994 474.934 C 286.796 477.428 282.512 482.236 281.527 490.046 L 280.966 494.500 282.303 489.849 C 284.846 481.007 288.302 477.687 297.233 475.507 C 300.130 474.800 301.375 474.210 300.000 474.197 C 298.625 474.183 296.372 474.515 294.994 474.934 "/></g>
<g fill="#043342FF">
<path d="M 732.500 417.927 C 731.400 418.367 727.808 419.059 724.518 419.465 C 718.742 420.177 707.428 423.761 708.277 424.611 C 708.506 424.839 710.450 424.287 712.596 423.383 C 714.743 422.479 720.516 421.134 725.424 420.395 C 730.333 419.656 734.810 418.590 735.374 418.026 C 736.576 416.824 735.362 416.782 732.500 417.927 "/></g>
<g fill="#043342FF">
<path d="M 545.000 480.132 C 555.635 484.993 562.147 488.242 566.000 490.610 C 568.475 492.130 569.912 492.651 569.193 491.767 C 567.702 489.931 548.778 480.366 545.000 479.538 L 542.500 478.989 545.000 480.132 "/></g>
</svg>
