<?xml version="1.0" encoding="utf-8"?>
<!DOCTYPE svg PUBLIC "-//W3C//DTD SVG 20010904//EN" "http://www.w3.org/TR/2001/REC-SVG-20010904/DTD/svg10.dtd">
<svg version="1.0" xmlns="http://www.w3.org/2000/svg" width="502pt" height="502pt" viewBox="0 0 502 502" style="" preserveAspectRatio="xMidYMid meet">
<g fill="#276469FF">
<path d="M 247.180 98.750 C 246.058 99.713 241.584 106.350 237.238 113.500 C 226.305 131.489 224.095 134.939 202.197 168.189 C 180.378 201.320 174.113 211.612 166.494 226.842 C 149.657 260.496 145.288 287.670 152.318 315.011 C 166.307 369.418 222.528 402.543 276.500 388.178 C 312.296 378.651 340.491 350.502 349.679 315.120 C 355.785 291.606 353.201 266.842 341.860 240.177 C 337.912 230.895 330.748 216.874 326.323 209.770 C 325.045 207.718 324.000 205.802 324.000 205.512 C 324.000 205.002 315.657 192.044 305.965 177.500 C 294.552 160.372 267.784 118.617 262.500 109.699 C 254.978 97.005 251.836 94.759 247.180 98.750 M 256.928 126.292 C 259.718 130.565 262.000 134.242 262.000 134.461 C 262.000 134.681 272.078 150.103 284.395 168.731 C 296.713 187.360 309.606 207.304 313.048 213.051 C 323.324 230.209 332.455 249.885 336.118 262.760 C 339.228 273.693 339.459 275.531 339.474 289.500 C 339.488 302.320 339.143 305.736 337.098 313.000 C 328.517 343.479 304.417 367.350 274.000 375.498 C 264.435 378.061 242.467 378.656 232.622 376.621 C 205.205 370.951 181.474 351.967 169.904 326.448 C 164.558 314.659 162.648 305.127 162.600 290.000 C 162.539 270.965 166.199 256.664 176.548 235.500 C 184.224 219.801 190.228 210.019 216.754 170.000 C 229.695 150.475 242.097 131.575 244.313 128.000 C 248.417 121.379 251.108 117.775 251.588 118.255 C 251.735 118.402 254.138 122.019 256.928 126.292 "/></g>
<g fill="#276469FF">
<path d="M 310.655 280.829 C 309.518 282.085 308.989 284.512 308.964 288.579 C 308.907 298.116 304.681 312.747 299.360 321.832 C 293.932 331.100 282.863 340.185 272.659 343.749 C 265.272 346.329 257.994 348.000 254.140 348.000 C 249.676 348.000 246.000 350.935 246.000 354.500 C 246.000 361.956 256.176 362.925 274.509 357.215 C 279.736 355.587 287.310 351.369 293.891 346.422 C 307.292 336.349 316.278 320.919 320.483 300.761 C 322.655 290.354 322.482 283.895 319.961 281.189 C 317.466 278.511 312.912 278.335 310.655 280.829 "/></g>
</svg>
