<?xml version="1.0" encoding="utf-8"?>
<!DOCTYPE svg PUBLIC "-//W3C//DTD SVG 20010904//EN" "http://www.w3.org/TR/2001/REC-SVG-20010904/DTD/svg10.dtd">
<svg version="1.0" xmlns="http://www.w3.org/2000/svg" width="502pt" height="502pt" viewBox="0 0 502 502" style="" preserveAspectRatio="xMidYMid meet">
<g fill="#176066FF">
<path d="M 170.000 89.163 C 161.608 91.576 156.000 99.119 156.000 107.992 C 156.000 114.673 157.801 118.694 162.822 123.225 C 166.919 126.922 168.733 127.699 174.500 128.226 L 177.500 128.500 178.059 240.000 C 178.441 316.210 178.966 352.766 179.716 355.500 C 184.573 373.195 191.918 384.876 205.203 396.034 C 236.279 422.134 282.407 417.373 308.471 385.377 C 313.658 379.008 318.044 370.906 321.339 361.603 C 323.493 355.519 323.502 355.148 324.000 242.000 L 324.500 128.500 329.000 127.948 C 340.338 126.556 347.601 117.981 346.801 106.930 C 346.280 99.726 342.680 93.938 336.749 90.770 L 332.500 88.500 253.000 88.328 C 202.120 88.218 172.240 88.519 170.000 89.163 M 235.500 209.436 C 239.900 210.224 246.200 211.744 249.500 212.813 C 260.867 216.494 267.377 217.409 282.500 217.452 C 293.595 217.483 299.515 217.022 305.239 215.681 C 309.496 214.684 313.433 214.150 313.989 214.493 C 314.654 214.904 314.993 236.946 314.980 278.809 C 314.958 350.364 314.758 353.136 308.693 366.000 C 304.977 373.879 299.190 381.715 293.175 387.009 C 285.936 393.381 280.634 396.435 271.000 399.779 C 261.298 403.148 244.028 403.556 234.500 400.643 C 219.716 396.123 206.991 386.919 199.132 375.060 C 194.992 368.815 194.666 368.139 189.935 356.000 C 188.841 353.193 188.505 338.597 188.236 282.333 L 187.901 212.166 190.200 211.408 C 200.116 208.139 222.757 207.153 235.500 209.436 M 314.500 165.959 L 314.500 203.418 311.000 204.204 C 298.181 207.082 291.293 208.000 282.500 207.999 C 271.652 207.998 264.830 206.876 246.752 202.124 C 228.880 197.426 213.517 197.011 191.750 200.637 L 188.000 201.262 188.000 165.298 C 188.000 145.517 188.303 129.030 188.674 128.659 C 189.045 128.288 217.507 128.101 251.924 128.243 L 314.500 128.500 314.500 165.959 M 328.861 98.622 C 336.942 100.238 339.888 109.859 334.022 115.479 L 331.043 118.333 251.772 118.366 C 177.391 118.397 172.333 118.289 169.801 116.617 C 168.316 115.638 166.593 113.295 165.971 111.412 C 164.364 106.542 167.143 100.963 172.000 99.306 C 174.584 98.425 195.171 98.098 250.625 98.056 C 291.944 98.025 327.150 98.280 328.861 98.622 "/></g>
<g fill="#176066FF">
<path d="M 220.250 263.347 C 218.463 263.934 217.000 264.771 217.000 265.207 C 217.000 266.625 214.230 266.043 213.638 264.500 C 212.883 262.533 208.566 262.576 206.571 264.571 C 205.214 265.929 205.000 270.157 205.000 295.637 C 205.000 314.056 205.389 325.858 206.035 327.066 C 207.208 329.258 211.899 329.701 213.800 327.800 C 214.561 327.039 215.000 323.200 215.000 317.300 C 215.000 308.957 215.793 306.238 217.446 308.913 C 218.444 310.527 225.649 311.172 229.901 310.027 C 234.974 308.661 240.552 303.910 242.724 299.105 C 245.000 294.072 244.978 277.882 242.689 272.810 C 240.830 268.693 236.235 264.857 231.101 263.138 C 227.162 261.819 224.767 261.866 220.250 263.347 M 230.150 273.080 C 234.866 275.604 236.691 289.109 233.248 295.999 C 230.016 302.468 222.221 303.639 218.012 298.288 C 215.376 294.936 215.166 282.560 217.657 277.311 C 219.965 272.447 225.478 270.580 230.150 273.080 "/></g>
<g fill="#176066FF">
<path d="M 254.065 245.878 C 253.380 247.158 253.000 258.426 253.000 277.434 C 253.000 305.667 253.090 307.090 255.000 309.000 C 257.269 311.269 258.318 311.435 261.066 309.965 C 262.836 309.017 263.000 307.748 263.000 294.965 L 263.000 281.000 275.500 281.000 L 288.000 281.000 288.000 294.477 C 288.000 307.534 288.073 308.002 290.359 309.500 C 292.741 311.060 295.815 310.646 297.235 308.573 C 298.560 306.638 298.147 246.547 296.800 245.200 C 295.253 243.653 290.747 243.653 289.200 245.200 C 288.396 246.004 288.000 250.474 288.000 258.731 L 288.000 271.062 275.750 270.781 L 263.500 270.500 263.000 257.500 L 262.500 244.500 258.815 244.194 C 255.966 243.956 254.889 244.338 254.065 245.878 "/></g>
</svg>
